<svg width="60" height="60" viewBox="0 0 60 60" fill="none" xmlns="http://www.w3.org/2000/svg">
<rect width="60" height="60" rx="12" fill="#009C32"/>
<path d="M51.7384 29.0903C51.0995 27.5377 49.5066 26.6837 47.7877 26.9856L44.2599 27.5894C43.6749 27.6929 43.288 28.2277 43.387 28.7884C43.4949 29.3491 44.0529 29.72 44.6379 29.6251L48.1656 29.0213C49.0026 28.8746 49.5246 29.3577 49.7315 29.858C49.9385 30.3583 49.9025 31.0483 49.1826 31.4882L43.9989 34.7056C43.5219 35.0075 42.928 35.0247 42.433 34.766C41.9291 34.5072 41.6321 34.0242 41.6321 33.4721V23.0351C41.6321 22.4658 41.1551 22 40.5521 22C39.9582 22 39.4722 22.4658 39.4722 23.0351V33.4549C39.4722 34.7746 40.1922 35.9304 41.3981 36.5601C41.956 36.8534 42.559 37 43.162 37C43.8549 37 44.5479 36.8102 45.1688 36.4221L50.3525 33.2047C51.8194 32.299 52.3774 30.6429 51.7384 29.0903ZM33.5146 26.977L29.9868 27.5808C29.4019 27.6843 29.0149 28.2191 29.1139 28.7798C29.2219 29.3404 29.7798 29.7113 30.3648 29.6164L33.8926 29.0127C34.7295 28.866 35.2515 29.3491 35.4585 29.8493C35.6655 30.3496 35.6295 31.0397 34.9095 31.4796L29.7258 34.697C29.2489 34.9989 28.6549 35.0161 28.1599 34.7573C27.656 34.4986 27.359 34.0155 27.359 33.4635V25.5451C27.359 24.2254 26.639 23.0696 25.4331 22.4399C24.2272 21.8102 22.8143 21.862 21.6623 22.5779L8.64018 30.6688C7.17328 31.5831 6.62431 33.2392 7.26327 34.7918C7.90223 36.3445 9.49513 37.1984 11.214 36.8965L22.5893 34.9385C23.1743 34.835 23.5612 34.3002 23.4622 33.7395C23.3542 33.1788 22.7963 32.8079 22.2113 32.9028L10.836 34.8608C9.9991 35.0075 9.47713 34.5244 9.27014 34.0242C9.06315 33.5239 9.09915 32.8338 9.81911 32.3939L22.8413 24.303C23.3182 24.0011 23.9122 23.9839 24.4072 24.2427C24.9111 24.5014 25.2081 24.9845 25.2081 25.5365V33.4549C25.2081 34.7746 25.9281 35.9304 27.134 36.5601C27.692 36.8534 28.2949 37 28.8979 37C29.5908 37 30.2838 36.8102 30.8958 36.4221L36.0794 33.2047C37.5463 32.2904 38.0953 30.6343 37.4563 29.0817C36.8264 27.529 35.2335 26.6837 33.5146 26.977Z" fill="white"/>
</svg>
