<svg width="60" height="60" viewBox="0 0 60 60" fill="none" xmlns="http://www.w3.org/2000/svg">
<rect width="60" height="60" rx="12" fill="#F9FBFC"/>
<path d="M0 30C0 16.85 0 10.275 3.632 5.85C4.2969 5.0398 5.0398 4.2969 5.85 3.632C10.275 0 16.85 0 30 0C43.15 0 49.725 0 54.15 3.632C54.96 4.297 55.703 5.04 56.368 5.85C60 10.275 60 16.85 60 30C60 43.15 60 49.725 56.368 54.15C55.7031 54.9602 54.9602 55.7031 54.15 56.368C49.725 60 43.15 60 30 60C16.85 60 10.275 60 5.85 56.368C5.03982 55.7031 4.29692 54.9602 3.632 54.15C0 49.725 0 43.15 0 30Z" fill="white"/>
<path d="M0 0H60V60H0V0Z" fill="#F9FBFC"/>
<path d="M7.45898 15.4423C7.45898 11.0111 11.0498 7.45842 15.4429 7.45842H43.5583C47.9895 7.45842 51.5422 11.0493 51.5422 15.4423V43.5577C51.5422 47.989 47.9513 51.5416 43.5583 51.5416H15.4429C11.0116 51.5416 7.45898 47.9508 7.45898 43.5577V15.4423V15.4423Z" fill="#072DA0"/>
<path d="M43.5959 52H15.4423C10.7818 52 7 48.2182 7 43.5577V15.4423C7 10.7818 10.7818 7 15.4423 7H43.5577C48.2182 7 52 10.7818 52 15.4423V43.5577C52 48.2182 48.2182 52 43.5959 52ZM15.4423 7.91681C11.2784 7.91681 7.91681 11.3166 7.91681 15.4423V43.5577C7.91681 47.7216 11.3166 51.0832 15.4423 51.0832H43.5577C47.7216 51.0832 51.0832 47.6834 51.0832 43.5577V15.4423C51.0832 11.2784 47.6834 7.91681 43.5577 7.91681H15.4423Z" fill="#F8FAFF"/>
<path d="M18.2695 18.2691H22.7772V22.7767H27.2848V27.2844H31.7925V31.792H27.2848V36.2996H22.7772V40.8073H18.2695V31.792H22.7772V27.2844H18.2695V18.2691Z" fill="white"/>
<path d="M31.7539 36.2615V31.7538H36.2616V36.2615H31.7539Z" fill="white"/>
<path d="M36.2617 36.2614H40.7694V40.7691H36.2617V36.2614Z" fill="white"/>
<path d="M31.7537 36.2614H27.2461V40.7691H31.7537V36.2614Z" fill="white"/>
<path d="M36.2614 31.7538V27.2462H31.7537V22.7385H27.2461V18.2691H36.2614V22.7767H40.769V31.792H36.2614V31.7538Z" fill="white"/>
</svg>
