<svg width="60" height="60" viewBox="0 0 60 60" fill="none" xmlns="http://www.w3.org/2000/svg">
<path d="M0 0.740741V60H60V0L0 0.740741ZM25.5 43.56L23.178 50.2993C14.4675 47.4311 8.661 39.2593 8.661 30.083C8.661 20.9081 14.4675 12.88 23.322 9.86815L25.6455 16.6074C19.839 18.4711 16.065 23.9185 16.065 29.9407C15.9195 36.3911 19.6935 41.6963 25.5 43.56ZM36.2415 50.5852L34.065 43.7037C40.0155 41.84 43.935 36.3911 43.935 30.2267C43.935 24.0622 40.0155 18.757 34.209 16.8933L36.5325 10.0119C45.387 12.88 51.3375 21.0519 51.3375 30.2267C51.3375 39.5452 45.2415 47.7185 36.2415 50.5852Z" fill="#00BEF0"/>
</svg>
