<svg width="60" height="60" viewBox="0 0 60 60" fill="none" xmlns="http://www.w3.org/2000/svg">
<path d="M46.6667 0H13.3333C5.96954 0 0 5.96954 0 13.3333V46.6667C0 54.0305 5.96954 60 13.3333 60H46.6667C54.0305 60 60 54.0305 60 46.6667V13.3333C60 5.96954 54.0305 0 46.6667 0Z" fill="#FFDD2D"/>
<path fill-rule="evenodd" clip-rule="evenodd" d="M55.3127 26.4547L53.14 26.5233C52.9553 26.5233 51.621 26.4853 50.3257 25.5503C50.4227 25.5592 50.519 25.5734 50.618 25.5734C51.9503 25.5734 53.2417 24.7752 53.758 23.6315L54.6927 21.5671C53.5197 21.5827 52.4483 21.4352 52.4483 21.4352C52.4397 21.4345 51.5943 21.3257 50.6173 20.3323C49.917 19.6204 49.0493 19.243 48.1107 19.243C47.6993 19.243 47.3323 19.3171 47.0153 19.417C47.0653 19.2498 47.111 19.0798 47.1383 18.905C47.4377 16.9726 46.1893 15.4998 46.1887 15.5011L44.553 13.4857L43.5397 15.8534C43.5363 15.8602 43.2797 16.4157 42.8223 16.6856C42.685 15.99 42.345 15.2074 41.6193 14.4608C40.2513 13.0519 38.587 12.8411 37.716 12.8411C37.313 12.8411 37.0247 12.8846 36.9543 12.8962L34.981 13.2817C35.095 12.8438 35.3383 12.0789 35.781 11.3908L36.8703 9.70307L34.1297 10.0131L33.2573 8.1684L31.567 9.03537L30.0044 7.5L28.446 9.03537L26.7523 8.1684L25.8812 10.0131L23.1414 9.7024L24.2325 11.3914C24.676 12.0789 24.9178 12.8418 25.0306 13.2797L23.1476 12.9105L23.0827 12.8996C22.9891 12.8846 22.7028 12.8411 22.297 12.8411C21.4265 12.8411 19.7615 13.0519 18.3971 14.4601C17.6708 15.2067 17.3299 15.99 17.1912 16.6856C16.7369 16.4177 16.482 15.8717 16.482 15.8717L15.4668 13.4905L13.8065 15.5181C13.6029 15.7792 12.6034 17.1643 12.8746 18.9071C12.9026 19.0811 12.9484 19.2498 12.9976 19.417C12.6826 19.3157 12.315 19.243 11.9044 19.243C10.965 19.243 10.098 19.6204 9.3956 20.3323C8.42133 21.3216 7.7584 21.3912 7.58917 21.4331C7.41993 21.4751 6.7003 21.5922 5.32493 21.5671L6.2555 23.6315C6.77203 24.7752 8.064 25.5734 9.39423 25.5734C9.49467 25.5734 9.59033 25.5592 9.6887 25.5503C8.39607 26.4853 7.0617 26.5233 6.90047 26.524L4.6875 26.4547L5.35773 28.5476C5.69527 29.626 6.82327 31.4123 8.98157 31.6047C8.74653 32.5839 8.22593 33.682 7.0822 34.1553L5.43357 34.831L6.3327 36.3897C6.83967 37.23 8.03257 38.2133 9.72903 38.2133C10.0952 38.212 10.4491 38.1753 10.7908 38.103C10.8782 38.4873 10.9868 38.8723 11.116 39.2543C11.6209 40.751 11.1857 41.794 11.1809 41.8057L10.3665 43.5027L12.1839 43.9793C12.2064 43.9863 12.7557 44.1363 13.443 44.1363C13.7546 44.1363 14.0538 44.1043 14.3319 44.038C14.543 43.989 14.7466 43.9237 14.9414 43.8447C15.1771 44.2643 15.4627 44.6477 15.7954 44.991C16.9603 46.1803 18.611 46.783 20.701 46.783H20.7078L22.1999 46.7637L19.1172 48.04L21.458 49.166C22.3093 49.5783 23.3163 50.0657 24.3439 50.439L24.0508 51.2353L24.8584 51.601C24.9301 51.6337 26.4817 52.324 29.0602 52.4713C29.0602 52.4713 29.6833 52.5 30.0263 52.5C30.3686 52.5 30.9835 52.4693 30.9835 52.4693C33.5463 52.3183 35.0857 51.6337 35.1573 51.601L35.9663 51.234L35.671 50.437C36.7267 50.0527 37.7727 49.5457 38.5883 49.149L40.8847 48.0387L37.8123 46.7637L39.3107 46.783C41.404 46.783 43.0547 46.1797 44.2177 44.989C44.549 44.6483 44.834 44.2663 45.071 43.8447C45.2663 43.9237 45.4713 43.989 45.683 44.0393C45.9613 44.1043 46.259 44.1363 46.5707 44.1363C47.2463 44.1363 47.801 43.9883 47.816 43.9833L49.641 43.5027L48.8457 41.8367C48.8273 41.794 48.392 40.751 48.8977 39.253C49.0253 38.8707 49.1333 38.486 49.2217 38.103C49.5647 38.1753 49.9227 38.212 50.292 38.2133C52.4533 38.2133 53.489 36.701 53.689 36.372L54.58 34.8297L52.9313 34.1567C51.785 33.682 51.2657 32.5845 51.0333 31.6061C53.1637 31.4211 54.3067 29.6335 54.656 28.5483L55.3127 26.4547Z" fill="#FEFEFE"/>
<path fill-rule="evenodd" clip-rule="evenodd" d="M33.6063 12.5985C32.6121 12.0477 31.3228 11.7342 30.0056 11.7342C28.6951 11.7342 27.4058 12.0477 26.409 12.5985C26.3181 12.2959 26.1917 11.928 26.0196 11.5432L26.394 11.5874L26.7875 11.6288L26.957 11.2712L27.453 10.2165L28.3726 10.6905L28.7293 10.8707L29.0128 10.5919L30.0056 9.61206L31.0003 10.5919L31.2852 10.8707L31.6418 10.6905L32.5567 10.2165L33.0596 11.2712L33.2256 11.6288L33.6199 11.5874L33.9956 11.5432C33.8232 11.928 33.6956 12.2959 33.6063 12.5985ZM30.0055 13.9089C28.2592 13.9109 26.9501 14.4801 26.6652 15.1498L30.0055 16.4628L33.3466 15.1498C33.0643 14.4801 31.7546 13.9109 30.0055 13.9089ZM30.0409 48.6377H30.0375H30.0088H29.976H29.9732C28.9163 48.6443 27.4576 48.428 26.7566 48.2247L25.9122 50.4987C26.4683 50.6957 28.3554 51.0747 30.0088 51.0747C31.6588 51.0747 33.5466 50.6957 34.1019 50.4987L33.2589 48.2247C32.5552 48.428 31.0986 48.6443 30.0409 48.6377ZM33.5836 47.5073C34.3996 47.2603 35.8032 46.7287 36.4319 46.3747L36.0122 47.741L37.4346 48.2117C36.5746 48.6413 35.5322 49.0423 34.2689 49.3857L33.5836 47.5073ZM23.5822 46.3747L24.003 47.741L22.5793 48.2117C23.4387 48.6413 24.4853 49.0423 25.7437 49.3857L26.4303 47.5073C25.6159 47.2603 24.2107 46.7287 23.5822 46.3747ZM50.1019 23.9331C50.2736 23.9922 50.4469 24.0181 50.6192 24.0181C51.3646 24.0181 52.0833 23.5387 52.3316 22.9906C52.3316 22.9906 50.9663 22.9084 49.4972 21.4254C49.0306 20.9446 48.5352 20.8011 48.1112 20.8011C47.4519 20.8011 46.9573 21.1466 46.9573 21.1466C47.9146 21.6539 48.4606 22.3267 48.9193 22.8918C49.3099 23.3735 49.6372 23.7769 50.1019 23.9331ZM9.90732 23.9331C9.74062 23.9922 9.56638 24.0181 9.39422 24.0181C8.64948 24.0181 7.92868 23.5387 7.68342 22.9913C7.68342 22.9913 9.04782 22.9084 10.5147 21.4254C10.9841 20.9439 11.478 20.8011 11.905 20.8011C12.5603 20.8011 13.0563 21.1472 13.0563 21.1472C12.1015 21.6535 11.5551 22.325 11.0956 22.8895C10.7028 23.3722 10.3736 23.7767 9.90732 23.9331ZM49.5676 34.7573C48.1949 34.0843 47.3293 32.2973 47.1196 31.6541C46.8916 35.1967 45.1539 37.656 43.1219 40.0237C42.0673 41.251 41.6996 42.4443 41.6996 42.4443C41.6996 42.4443 41.9032 41.092 42.8146 39.9917C44.7106 37.7253 46.5123 34.9037 46.6463 31.6404C46.7376 29.3633 46.1502 27.5171 45.2319 25.9947C45.7456 27.5797 45.6726 29.5203 43.9289 31.3324C43.9289 31.3324 47.4012 27.1921 42.5476 22.9471C41.1686 21.8001 39.6966 20.9647 38.5672 20.3237V20.3237C38.1059 20.0618 37.7016 19.8324 37.3843 19.6275C41.3376 20.9113 43.2682 19.4983 43.2682 19.4983C42.0063 20.587 40.3713 20.5686 39.3582 20.4115C39.6336 20.5448 39.9193 20.6842 40.2266 20.8487C43.5599 22.6506 46.5559 25.616 47.0669 29.7223V29.691C47.8426 33.7233 49.5676 34.7573 49.5676 34.7573ZM50.5823 30.0595C50.6136 30.0616 50.6396 30.0616 50.6709 30.0616C52.5292 30.0616 53.1586 28.0808 53.1586 28.0808H53.1226C52.7816 28.0808 50.0186 28.0006 48.0659 25.531C48.0113 25.4619 47.9569 25.3932 47.9033 25.3249V25.3248C46.6893 23.786 45.6383 22.4534 43.6463 21.9156L43.4412 21.8802L43.3972 21.6722C43.3392 21.3567 43.5579 21.0595 44.0519 20.7399C46.9236 18.8687 44.9729 16.4813 44.9729 16.4813C44.9729 16.4813 44.1529 18.3907 42.3186 18.3907C42.2966 18.3907 42.2743 18.39 42.2516 18.3893C42.2289 18.3886 42.2056 18.388 42.1826 18.388L42.1419 18.3859C41.9479 18.3759 41.7596 18.3662 41.5706 18.3268L41.2329 18.2608C41.2329 18.2608 41.7556 16.8444 40.4929 15.545C39.5419 14.5638 38.3853 14.3972 37.7169 14.3972C37.3809 14.3972 37.1669 14.4401 37.1669 14.4401C37.8013 15.2649 38.2596 16.6343 37.5279 17.4795C37.2826 17.7603 36.9009 17.9377 36.5249 18.1124C35.9292 18.3892 35.3482 18.6591 35.3482 19.3222C35.3482 19.7812 35.7796 20.3157 36.5516 20.7957C38.8753 22.2515 41.1816 24.1846 42.1416 26.7739C43.3392 30.0038 41.9893 32.1477 40.0626 33.3777C40.0626 33.3777 40.6672 33.9313 41.5433 34.002C41.7216 34.019 41.8956 34.0277 42.0583 34.0277C43.9086 34.0277 44.8656 33.1636 44.8656 33.1636C44.8656 33.1636 44.7079 34.357 43.7453 35.4647C42.8563 36.4873 41.6906 37.0903 39.9116 37.1147C39.9116 37.1147 39.8556 37.937 40.6426 38.648C41.1476 39.097 42.3112 39.2423 42.3112 39.2423C42.3112 39.2423 40.1316 39.6823 39.8913 42.8857C39.7606 44.6217 39.3146 45.2253 39.3146 45.2253H39.3532C44.4113 45.2253 44.2822 40.9083 44.2822 40.9083C44.2822 40.9083 44.6333 42.186 46.0449 42.52C46.2149 42.5633 46.3969 42.581 46.5702 42.581C47.0239 42.581 47.4189 42.475 47.4189 42.475C47.4189 42.475 46.6796 40.924 47.4136 38.7543C48.0209 36.9537 47.9232 35.6203 47.9232 35.6203C47.9232 35.6203 48.6042 36.645 50.2933 36.6547H50.3109C51.7176 36.6547 52.3306 35.593 52.3306 35.593C48.9582 34.1997 49.2916 29.7039 49.2916 29.7039C49.2916 29.7039 49.7296 30.0289 50.5823 30.0595ZM12.8925 31.6534C13.1221 35.1967 14.8595 37.656 16.8907 40.023C17.945 41.251 18.3173 42.4437 18.3173 42.4437C18.3173 42.4437 18.111 41.0913 17.1955 39.9927C15.3036 37.7253 13.5019 34.903 13.3694 31.6405C13.2744 29.3626 13.8627 27.5165 14.7823 25.9948C14.2692 27.5804 14.3396 29.5204 16.0852 31.3332C16.0852 31.3332 12.6124 27.1922 17.4687 22.9472C18.8467 21.8007 20.3165 20.9658 21.4447 20.3249C21.9064 20.0627 22.3109 19.8329 22.6285 19.6276C18.6767 20.9114 16.7459 19.4977 16.7459 19.4977C18.0071 20.587 19.6414 20.5687 20.656 20.4116L20.6327 20.4229C20.3651 20.5527 20.0844 20.6889 19.7876 20.8495C16.4528 22.6507 13.4589 25.6167 12.9458 29.7223V29.6904C12.1717 33.7227 10.4472 34.7573 10.4472 34.7573C11.8185 34.0843 12.6827 32.2967 12.8925 31.6534ZM19.3729 38.6477C18.868 39.097 17.7031 39.2423 17.7031 39.2423C17.7031 39.2423 19.8847 39.6817 20.1245 42.8857C20.255 44.6217 20.6971 45.2247 20.6971 45.2247H20.6615C15.6022 45.2247 15.732 40.9077 15.732 40.9077C15.732 40.9077 15.3788 42.186 13.9693 42.52C13.8005 42.5633 13.6202 42.581 13.4439 42.581C12.9902 42.581 12.5974 42.475 12.5974 42.475C12.5974 42.475 13.3325 40.9247 12.5994 38.7543C11.9934 36.9537 12.0918 35.6197 12.0918 35.6197C12.0918 35.6197 11.4113 36.645 9.72102 36.6553H9.70395C8.29785 36.6553 7.68365 35.593 7.68365 35.593C11.054 34.2 10.724 29.704 10.724 29.704C10.724 29.704 10.286 30.029 9.43132 30.0596C9.39992 30.0616 9.37188 30.0616 9.34252 30.0616C7.48345 30.0616 6.85352 28.0809 6.85352 28.0809H6.89108C7.23408 28.0809 9.99432 28.0007 11.9463 25.531C12.0013 25.4615 12.0559 25.3924 12.1102 25.3236L12.1103 25.3235C13.3243 23.7858 14.3759 22.4539 16.364 21.9157L16.5731 21.8796L16.6175 21.6722C16.6756 21.3567 16.4576 21.0589 15.9643 20.74C13.0927 18.8687 15.0426 16.4821 15.0426 16.4821C15.0426 16.4821 15.8577 18.3907 17.6977 18.3907C17.7196 18.3907 17.7409 18.3902 17.7626 18.3897H17.7626C17.785 18.3892 17.8077 18.3887 17.8316 18.3887L17.885 18.3858C18.0736 18.3755 18.2595 18.3653 18.4437 18.3268L18.7826 18.2609C18.7826 18.2609 18.2572 16.8445 19.5226 15.5451C20.4729 14.5639 21.6303 14.3966 22.2971 14.3966C22.6354 14.3966 22.8465 14.4401 22.8465 14.4401C22.2138 15.2649 21.7554 16.6344 22.4871 17.4789C22.732 17.76 23.1136 17.9376 23.4892 18.1125C24.0839 18.3893 24.6638 18.6593 24.6638 19.3223C24.6638 19.7806 24.2334 20.3157 23.4614 20.7958C21.1377 22.2516 18.8319 24.1854 17.8726 26.774C16.6756 30.0045 18.0256 32.1484 19.9544 33.3777C19.9544 33.3777 19.349 33.9313 18.4711 34.002C18.2928 34.019 18.1206 34.0273 17.9546 34.0273C16.1064 34.0273 15.1492 33.1636 15.1492 33.1636C15.1492 33.1636 15.3084 34.357 16.2649 35.4653C17.1593 36.4873 18.3242 37.0903 20.1033 37.115C20.1033 37.115 20.1593 37.937 19.3729 38.6477ZM28.8641 23.3332H30.0576H31.2477V24.1471C30.9683 23.8058 30.4217 23.8758 30.4217 23.8758V25.0486C30.4217 25.0486 30.4429 25.6265 30.6458 25.876H30.0576H29.466C29.6723 25.6265 29.6908 25.0486 29.6908 25.0486V23.8758C29.6908 23.8758 29.1463 23.8058 28.8641 24.1471V23.3332ZM26.2663 23.4559C26.3489 23.5442 26.4303 23.6401 26.5095 23.7374L26.5204 23.7505V23.7505C26.5349 23.7679 26.5488 23.7848 26.5642 23.806C26.6366 23.9019 26.7097 24.0039 26.7808 24.1086C26.7899 24.1204 26.7987 24.1335 26.8078 24.1471L26.8166 24.1602L26.8216 24.1674L26.8248 24.1719L26.8286 24.1773C26.9133 24.3044 26.9932 24.4364 27.0725 24.5724C27.8022 25.8255 28.9691 26.5755 30.0056 26.5769C31.0427 26.5755 32.209 25.8255 32.9407 24.5724C33.0213 24.433 33.1033 24.2976 33.188 24.1712C33.201 24.1535 33.214 24.1351 33.2256 24.1161C33.2974 24.008 33.3732 23.9033 33.4519 23.8013C33.4626 23.7874 33.4729 23.7743 33.4829 23.7617L33.4996 23.7408C33.5809 23.6401 33.6649 23.5436 33.7502 23.4525C33.7563 23.4467 33.7619 23.4411 33.7673 23.4356V23.4355C33.7753 23.4274 33.7829 23.4196 33.7913 23.4123C34.1629 23.0343 34.6056 22.7453 35.1859 22.5855L34.9276 22.4359H34.9139L33.8869 21.843L32.8321 21.2412L30.0138 22.7684L30.0056 22.7616L30.0001 22.7684L27.1811 21.2412L26.1269 21.843L25.098 22.4359H25.0863L24.826 22.5855C25.4068 22.7453 25.8481 23.0309 26.2212 23.4096C26.2276 23.4157 26.2333 23.4222 26.2391 23.4286C26.2474 23.438 26.2558 23.4474 26.2663 23.4559ZM29.1073 18.924V18.1584L27.7211 17.5778C27.7211 17.5778 27.7334 18.0224 28.3572 18.5052C28.6949 18.7703 28.9042 18.8383 28.9502 18.8533C28.9558 18.8551 28.959 18.8562 28.9597 18.8567L29.1073 18.924ZM29.762 16.9864V21.7543L27.5169 20.5773L26.7128 15.9583L29.762 16.9864ZM30.9059 18.1584L32.292 17.5778C32.292 17.5778 32.2804 18.0224 31.6546 18.5052C31.3165 18.7715 31.107 18.839 31.0618 18.8535C31.0566 18.8552 31.0536 18.8562 31.0528 18.8567L30.9059 18.924V18.1584ZM32.4961 20.5773L33.2976 15.9583L30.2504 16.9864V21.7543L32.4961 20.5773ZM26.2913 32.9335C26.1075 32.9335 25.7468 32.9117 25.4503 32.8043C25.1231 32.684 24.6354 32.0863 24.7474 31.4282C24.8888 31.3419 25.2167 31.1583 25.5234 31.1583C25.7598 31.1583 25.921 31.2684 26.0345 31.5057C26.1328 31.7117 26.3104 31.8484 26.4348 31.9266C26.4307 32.119 26.4123 32.4174 26.3603 32.6819C26.3487 32.7411 26.3337 32.7955 26.318 32.8492C26.3119 32.8725 26.3048 32.8932 26.2988 32.911L26.2953 32.9211C26.2939 32.9255 26.2925 32.9296 26.2913 32.9335ZM30.5541 31.924L30.5541 31.924L30.4901 31.9862C30.4778 31.9983 30.4697 32.0062 30.4661 32.0098L30.3984 32.0764L26.8962 32.0214C26.8942 32.3668 26.8375 32.6605 26.7829 32.8754C26.774 32.9114 26.7644 32.9488 26.7548 32.9862L30.9211 33.7313C31.3543 33.4303 32.5472 32.5633 33.0105 32.2233C32.6736 31.7344 32.6415 31.153 32.718 30.7437C32.496 30.6036 32.3279 30.4445 32.194 30.2759C31.7124 30.798 30.8372 31.6489 30.5546 31.9235L30.5543 31.9239L30.5541 31.924ZM30.3967 27.2439C31.0881 27.1752 31.8615 26.8801 32.6691 26.0838H37.9359C37.7066 26.6877 37.5166 27.3411 37.5166 27.9911L37.5186 32.1872C36.6373 32.0396 36.5326 31.0959 36.5292 31.0551L36.5136 30.862L36.3242 30.8456C35.9403 30.8096 35.6876 30.6484 35.4729 30.4411C35.0413 30.0106 35.0406 29.3144 35.0413 29.3089C35.0413 29.3095 35.0409 29.3103 35.0406 29.3113C35.0399 29.3128 35.0389 29.3148 35.0379 29.3171C35.0352 29.3226 35.0309 29.3304 35.0252 29.3404C34.9469 29.4839 34.6236 30.0749 35.1109 30.7137C35.3393 31.0143 35.6719 31.1992 36.1016 31.2726C36.2026 31.7955 36.5936 32.5353 37.5186 32.6475V34.7023H34.9189C33.7206 34.0373 34.2289 32.8692 34.2516 32.8196L34.3532 32.5986L34.1236 32.5115C32.8255 32.0328 33.1828 30.7443 33.1999 30.6879L33.2525 30.5009L33.0763 30.4179C32.0043 29.9229 32.1492 28.5916 32.1635 28.5358C31.8342 28.8017 31.7153 29.3443 31.9421 29.876C31.8261 30.0088 31.6721 30.1673 31.5021 30.3422L31.5019 30.3424L31.5017 30.3426L31.4741 30.371C30.3638 30.0888 30.329 29.0736 30.329 29.0281L30.3263 28.8717L30.1807 28.8153C29.7476 28.6555 29.4497 28.4161 29.3035 28.0945C29.1388 27.7389 29.1969 27.3649 29.242 27.1854C29.3691 27.2139 29.4948 27.233 29.6164 27.2439C29.7414 27.2568 29.8685 27.2643 29.9984 27.2643H30.0058H30.0154C30.1446 27.2643 30.2703 27.2568 30.3967 27.2439ZM25.672 28.0068L25.601 30.6781L25.907 30.7243L26.6531 28.1611L26.2746 27.3724L25.672 28.0068ZM27.1428 37.7357C27.1374 37.8227 27.2009 37.896 27.2876 37.898C27.3716 37.9057 27.4439 37.841 27.4521 37.756C27.4556 37.6743 27.3934 37.5983 27.306 37.595C27.2207 37.5873 27.1503 37.6533 27.1428 37.7357ZM33.9726 40.2727C33.9482 40.266 33.9222 40.2637 33.8996 40.2637C33.7492 40.2637 33.6836 40.3957 33.6836 40.3957C33.7842 40.6643 33.8096 40.8573 33.8323 41.032C33.8579 41.2267 33.8806 41.3993 34.0012 41.63C34.1449 41.905 34.3836 42.1373 34.5299 42.2793C34.5566 42.3057 34.5806 42.3287 34.5999 42.3487C34.5999 42.3487 34.5656 42.594 34.5302 42.7783L34.2049 44.46C33.9979 44.4883 33.7806 44.5033 33.5553 44.5137L33.8962 42.896C33.9459 42.6623 33.6632 42.5067 33.2866 42.2993C32.8904 42.0813 32.3899 41.806 32.0617 41.3217C31.7488 41.672 31.1605 41.7767 30.5688 41.7767C30.0291 41.7767 29.49 41.6903 29.1614 41.6257C29.0787 41.6137 28.9995 41.6033 28.9209 41.6033C28.7316 41.6033 28.5588 41.6617 28.4392 41.861L28.3456 42.0193L26.5795 41.6047L26.1395 42.3303C26.078 42.447 26.0739 42.5457 26.1737 42.6553L26.2925 42.785C26.2106 43.0407 25.843 43.4283 25.843 43.4283L25.5806 43.102C25.3729 42.8707 25.4071 42.447 25.6223 42.0557L26.3233 40.8793L27.8195 41.0933L27.5879 40.5663C27.3695 40.0793 27.5359 39.5 27.6735 39.021L27.6735 39.0207C27.7331 38.8133 27.7872 38.625 27.8025 38.4707C27.7854 38.625 27.6426 38.6603 27.4766 38.6603C27.3959 38.6603 27.3099 38.652 27.2303 38.6443C27.1615 38.6373 27.0974 38.6313 27.0454 38.6313C27.001 38.6313 26.9634 38.636 26.9436 38.6503L26.5378 38.8957L26.2188 38.615C26.1798 38.5613 26.1675 38.4333 26.2611 38.3387L27.001 37.5127L26.1272 36.496L27.3516 37.108L27.726 36.6573C27.8284 36.7567 27.7833 37.019 27.7833 37.019C28.1646 37.0287 29.2372 37.6173 29.2939 38.995C29.296 39.037 29.296 39.084 29.296 39.1303C29.296 39.1303 29.3069 39.1467 29.3254 39.1753C29.4012 39.2787 29.6103 39.5437 29.8747 39.569L31.5677 39.7353H31.5739C31.6454 39.7353 31.744 39.7033 31.8654 39.6637C32.0593 39.6007 32.3114 39.5187 32.6035 39.5187C32.8611 39.5187 33.148 39.584 33.4549 39.7763C33.4549 39.7763 33.6092 39.6553 33.8586 39.6417C33.8776 39.6403 33.8996 39.6403 33.9166 39.6403C34.5546 39.6403 34.8789 40.1223 35.2083 40.612C35.2706 40.705 35.3336 40.7983 35.3986 40.8887C35.7039 41.3217 36.1146 41.963 36.1146 41.963C35.9629 42.1407 35.8229 42.2403 35.5872 42.2403C35.5229 42.2403 35.4492 42.2357 35.3686 42.2187C34.9006 42.1333 34.6629 41.546 34.4569 41.0373C34.3049 40.6617 34.1699 40.3287 33.9726 40.2727ZM24.876 41.7933C24.876 41.7933 25.4621 41.5533 25.514 41.3833L25.4355 41.188C25.3801 41.0617 25.3883 40.9243 25.4949 40.8493L26.1269 40.415L27.1823 40.617C27.1823 40.617 26.9917 40.379 27.0102 40.0607L26.0018 39.8487L25.0522 40.424C24.6444 40.7277 24.615 41.2233 24.7496 41.5177L24.876 41.7933ZM32.9725 44.5233C32.7437 44.5233 32.534 44.526 32.3454 44.5343L32.8414 42.997C32.8934 42.8543 32.7322 42.6833 32.572 42.5133C32.4948 42.4313 32.4179 42.3497 32.3652 42.2717C32.6098 42.424 33.2417 42.7583 33.5462 42.8923C33.5156 42.942 32.9725 44.5233 32.9725 44.5233Z" fill="white"/>
<path fill-rule="evenodd" clip-rule="evenodd" d="M34.1795 34.7023H22.4956V27.991C22.4956 27.341 22.3043 26.6875 22.0781 26.0837H27.3438C27.8446 26.5788 28.3344 26.8875 28.8011 27.0568C28.741 27.2954 28.6603 27.7884 28.8851 28.2807C29.0689 28.6771 29.401 28.9824 29.8826 29.1864C29.9339 29.676 30.2468 30.4131 31.107 30.7388C30.7291 31.1175 30.3629 31.4745 30.2147 31.618L26.7193 31.5629C26.64 31.5234 26.5048 31.4344 26.4446 31.3093C26.441 31.2997 26.4361 31.2926 26.4311 31.2853C26.4268 31.279 26.4225 31.2725 26.4187 31.2644L26.9892 31.3562C27.0015 31.3575 27.0138 31.3575 27.0261 31.3575C27.1361 31.3575 27.2324 31.2821 27.2502 31.1699C27.2686 31.0434 27.1846 30.9278 27.0616 30.9094L26.3592 30.7993L27.1381 28.123L26.4002 26.5788L25.2189 27.8217L25.1472 30.6041L24.3533 30.479C24.2303 30.4552 24.1135 30.5436 24.0916 30.6674C24.0732 30.7898 24.1565 30.906 24.2809 30.9278L24.6143 30.9781C24.4954 31.0454 24.4168 31.0992 24.4073 31.1066L24.3396 31.1535L24.3212 31.2365C24.1278 32.0171 24.5644 32.7583 25.0372 33.0894L25.0194 33.188C25.0003 33.3077 25.0283 33.4247 25.1007 33.5233C25.1697 33.6233 25.2736 33.683 25.3932 33.704C25.4171 33.709 25.443 33.711 25.4669 33.711C25.6705 33.711 25.8495 33.57 25.8987 33.3633C26.075 33.3853 26.2363 33.3887 26.3463 33.3887H26.4385L31.0243 34.214L31.1029 34.1623C31.467 33.9087 32.8608 32.899 33.3172 32.5631C33.4422 32.6712 33.5828 32.7678 33.7532 32.8487C33.6042 33.3423 33.5952 34.102 34.1795 34.7023ZM22.4956 35.155H37.5168L37.5198 40.7783C37.5198 42.6423 36.4205 43.9437 34.6872 44.368L34.9775 42.8633L34.9812 42.842C34.9962 42.758 35.0125 42.664 35.0245 42.5843C35.1065 42.6183 35.1935 42.647 35.2862 42.664C35.3948 42.6843 35.4945 42.6947 35.5862 42.6947C36.0288 42.6947 36.2872 42.4627 36.4588 42.2647L36.6815 42.0063L36.4995 41.7237C36.4832 41.6957 36.0795 41.062 35.7705 40.628C35.7098 40.543 35.6518 40.4573 35.5932 40.3663C35.2405 39.8413 34.7992 39.1847 33.9158 39.1847L33.8358 39.186C33.6908 39.1953 33.5658 39.2233 33.4642 39.262C33.1867 39.1337 32.8991 39.0657 32.6019 39.0657C32.2363 39.0657 31.9282 39.1657 31.7232 39.2357C31.7051 39.2407 31.6876 39.2463 31.6708 39.2513C31.6331 39.263 31.599 39.2737 31.5702 39.2783L29.9181 39.1167C29.8977 39.1133 29.8293 39.0737 29.7473 38.9767V38.9683L30.1047 38.8257C30.0042 37.6403 28.8612 36.9113 28.2231 36.6647C28.1951 36.5457 28.1377 36.4273 28.0379 36.3307L27.6826 35.9957L27.3704 36.3673L27.2167 36.558L24.9019 35.6113L26.4084 37.493L25.8147 38.3883C25.5967 38.619 25.8366 38.8487 25.8366 38.8487L26.4508 39.2703L27.0869 39.0337C27.1024 39.0337 27.1164 39.036 27.1305 39.0383C27.1368 39.0393 27.1432 39.0403 27.1497 39.041C27.1321 39.0947 27.1119 39.2367 27.093 39.37C27.0782 39.4743 27.0641 39.5733 27.0527 39.6197L25.9479 39.4037L24.7878 40.0557C24.1913 40.492 24.11 41.213 24.3314 41.7067L24.4599 41.9867L24.6423 42.3823L25.0495 42.2153C25.0549 42.2147 25.0604 42.2117 25.0631 42.209C24.9176 42.6727 24.9771 43.114 25.2367 43.403L25.484 43.711L25.812 44.123L26.172 43.739C26.2772 43.6343 26.6216 43.2507 26.7275 42.9237L26.8047 42.6727L26.6298 42.4797L26.5997 42.4457L26.7985 42.1207L28.2401 42.4587L28.564 42.5333L28.7362 42.25L28.8305 42.0957C28.8482 42.0623 28.8523 42.0573 28.9193 42.0573C28.9698 42.0573 29.0211 42.0623 29.0764 42.075C29.6209 42.177 30.1224 42.228 30.5672 42.228C30.9997 42.228 31.258 42.2117 31.5647 42.1103C31.5647 42.1103 32.3388 42.9857 32.3655 43.0177L31.892 44.4747L31.8701 44.5617C30.973 44.6343 30.5358 44.8303 30.0077 45.3553C29.2411 44.5983 28.6965 44.5183 26.6352 44.5183C24.1674 44.5183 22.4956 43.078 22.4956 40.7783V35.155Z" fill="#FFDD2D"/>
<path fill-rule="evenodd" clip-rule="evenodd" d="M26.7868 11.6289L26.3933 11.5874L26.0189 11.5425C26.1911 11.9287 26.3174 12.2952 26.4083 12.5985C27.4051 12.0484 28.6944 11.735 30.0048 11.735C31.3221 11.735 32.612 12.0484 33.6055 12.5985C33.6955 12.2952 33.8228 11.9287 33.9948 11.5425L33.6192 11.5874L33.2249 11.6289L33.0588 11.2719L32.5567 10.2166L31.6411 10.6905L31.2845 10.8714L30.9996 10.5913L30.0048 9.6121L29.0121 10.5913L28.7286 10.8714L28.3719 10.6905L27.4523 10.2166L26.9563 11.2719L26.7868 11.6289ZM33.9548 13.4846C33.1765 12.8658 31.7663 12.2845 30.0049 12.2845C28.2463 12.2845 26.8416 12.8658 26.0579 13.4846C26.0579 13.4846 25.8277 12.0988 25.0379 10.8769L26.4563 11.0374L27.1976 9.46803L28.6262 10.1997L30.0049 8.83977L31.3885 10.1997L32.8137 9.46803L33.5565 11.0374L34.9761 10.8769C34.1855 12.0988 33.9548 13.4846 33.9548 13.4846ZM27.3059 37.5947C27.2206 37.5867 27.1496 37.6533 27.1427 37.736C27.1366 37.8223 27.2008 37.896 27.2875 37.898C27.3715 37.9047 27.4439 37.841 27.4521 37.756C27.4555 37.6743 27.3933 37.598 27.3059 37.5947ZM34.2691 49.3857L33.5831 47.507C34.3988 47.2603 35.8028 46.7287 36.4311 46.3743L36.0125 47.7417L37.4341 48.2113C36.5741 48.641 35.5315 49.0417 34.2691 49.3857ZM30.0085 51.0743C28.3552 51.0743 26.4681 50.696 25.9119 50.499L26.7564 48.2243C27.4567 48.4283 28.9154 48.644 29.973 48.6373H29.9757H30.0085H30.0372H30.0406C31.0976 48.644 32.5542 48.4283 33.2586 48.2243L34.1018 50.499C33.5455 50.696 31.6585 51.0743 30.0085 51.0743ZM22.5791 48.2113L24.0027 47.7413L23.5812 46.3743C24.2091 46.7283 25.615 47.26 26.4293 47.507L25.7427 49.3853C24.485 49.0413 23.4377 48.641 22.5791 48.2113ZM37.4981 47.794L36.6325 47.4643L36.8715 46.5737L37.1345 45.604C37.1345 45.604 35.6015 46.432 33.4405 47.0537C32.8276 47.2283 32.3636 47.308 32.3636 47.308V47.9687C32.3636 47.9687 31.2076 48.1687 30.0407 48.1687H30.0263H30.0086H29.986H29.973C28.8041 48.1687 27.6501 47.9687 27.6501 47.9687V47.308C27.6501 47.308 27.1855 47.2283 26.5733 47.0537C24.4123 46.432 22.8811 45.604 22.8811 45.604L23.1401 46.5737L23.3833 47.4643L22.5156 47.794L21.553 48.1523C21.6586 48.2033 21.7681 48.2563 21.8811 48.311C22.9475 48.827 24.3195 49.491 25.5847 49.8353L25.2547 50.733C25.2547 50.733 27.0297 51.538 29.986 51.5453V51.5467H29.9949H30.0086H30.0195H30.0263V51.5453C32.9867 51.538 34.7598 50.733 34.7598 50.733L34.4285 49.8353C35.7041 49.488 37.0901 48.816 38.1578 48.298C38.2611 48.248 38.3618 48.1993 38.4588 48.1523L37.4981 47.794ZM52.3301 35.5933C52.3301 35.5933 51.7175 36.6553 50.3101 36.6553H50.2928C48.6031 36.6453 47.9228 35.62 47.9228 35.62C47.9228 35.62 48.0198 36.954 47.4118 38.7537C46.6795 40.925 47.4185 42.4747 47.4185 42.4747C47.4185 42.4747 47.0231 42.5807 46.5695 42.5807C46.3958 42.5807 46.2148 42.5637 46.0431 42.52C44.6325 42.1857 44.2811 40.9073 44.2811 40.9073C44.2811 40.9073 44.4105 45.225 39.3525 45.225H39.3128C39.3128 45.225 39.7588 44.6213 39.8901 42.886C40.1305 39.6827 42.3101 39.242 42.3101 39.242C42.3101 39.242 41.1465 39.0963 40.6431 38.647C39.8538 37.9363 39.9098 37.1143 39.9098 37.1143C41.6898 37.09 42.8561 36.4867 43.7441 35.4647C44.7068 34.357 44.8641 33.1638 44.8641 33.1638C44.8641 33.1638 43.9075 34.0267 42.0571 34.0267C41.8948 34.0267 41.7211 34.0193 41.5421 34.0017C40.6668 33.9313 40.0615 33.3773 40.0615 33.3773C41.9875 32.1486 43.3391 30.0033 42.1408 26.7735C41.1808 24.1856 38.8741 22.2518 36.5511 20.7953C35.7785 20.3152 35.3481 19.7808 35.3481 19.3218C35.3481 18.6588 35.9285 18.3891 36.5235 18.1125C36.8995 17.9378 37.2815 17.7603 37.5268 17.4791C38.2585 16.6339 37.7995 15.2651 37.1661 14.4403C37.1661 14.4403 37.3791 14.3968 37.7161 14.3968C38.3848 14.3968 39.5418 14.5634 40.4921 15.5453C41.7545 16.8447 41.2311 18.261 41.2311 18.261L41.5695 18.3263C41.7621 18.3672 41.9545 18.3765 42.1525 18.3861L42.1815 18.3875C42.2041 18.3875 42.2271 18.3882 42.2498 18.3889C42.2728 18.3896 42.2958 18.3902 42.3181 18.3902C44.1521 18.3902 44.9718 16.4816 44.9718 16.4816C44.9718 16.4816 46.9218 18.8683 44.0508 20.7395C43.5568 21.0598 43.3391 21.3569 43.3965 21.6717L43.4408 21.8798L43.6451 21.9159C45.6355 22.453 46.6858 23.7837 47.8978 25.3192L47.8985 25.32L47.9051 25.3283L47.9091 25.3332L47.9105 25.3349L47.9141 25.3396L47.9178 25.3445L47.9205 25.3476C47.9681 25.4083 48.0165 25.4693 48.0648 25.5305C50.0181 28.0008 52.7798 28.0804 53.1208 28.0804H53.1585C53.1585 28.0804 52.5278 30.0611 50.6701 30.0611C50.6385 30.0611 50.6118 30.0611 50.5818 30.0591C49.7285 30.0285 49.2905 29.7042 49.2905 29.7042C49.2905 29.7042 48.9578 34.1993 52.3301 35.5933ZM50.6705 30.6677C52.9485 30.6677 53.7108 28.3613 53.7415 28.2627L53.9965 27.4495L53.1425 27.476H53.1395C52.8385 27.476 50.3241 27.41 48.5428 25.1559L48.3748 24.9472L48.3661 24.9361C47.2051 23.4667 46.1015 22.07 44.1318 21.4325C44.1895 21.3815 44.2708 21.3182 44.3828 21.2455C45.4308 20.5608 46.0401 19.7271 46.1931 18.7602C46.4175 17.3058 45.4841 16.1451 45.4431 16.0982L44.8091 15.3182L44.4128 16.2437L44.4121 16.2448C44.3785 16.3191 43.7118 17.7845 42.3188 17.7845H42.2135C42.1888 17.7831 42.1645 17.7817 42.1401 17.7804C42.0708 17.7767 42.0025 17.773 41.9361 17.7675C41.9851 17.1072 41.8645 16.0839 40.9311 15.1231C39.8098 13.9678 38.4352 13.7938 37.7165 13.7938C37.3778 13.7938 37.1395 13.8308 37.0685 13.8419C37.0588 13.8433 37.0525 13.8444 37.0488 13.8448L36.0911 14.0338L36.6828 14.8089C37.1451 15.4066 37.5661 16.5095 37.0675 17.0848C36.9171 17.2581 36.6165 17.4005 36.3195 17.5412L36.2668 17.5662C35.6225 17.8613 34.7405 18.274 34.7405 19.3219C34.7405 19.9991 35.2691 20.709 36.2278 21.3121C39.0638 23.0868 40.8141 24.9397 41.5698 26.9844C42.7395 30.1299 41.2131 31.9243 39.7328 32.8695L39.0671 33.2944L39.6485 33.8263L39.6491 33.8267C39.7308 33.898 40.4405 34.5193 41.4898 34.6087C41.6895 34.621 41.8795 34.6327 42.0578 34.6327C42.7308 34.6327 43.3051 34.5273 43.7718 34.385C43.6435 34.6087 43.4848 34.838 43.2875 35.067C42.4401 36.043 41.3985 36.487 39.9008 36.5113L39.3438 36.5203L39.3015 37.0757C39.2961 37.188 39.2538 38.218 40.2341 39.0947C40.3838 39.2307 40.5648 39.342 40.7555 39.4323C40.0901 40.028 39.4148 41.0657 39.2845 42.8417C39.1738 44.3253 38.8191 44.8737 38.8145 44.8797L38.1988 45.8147L39.3111 45.8297C41.1485 45.8297 42.5545 45.3257 43.5295 44.3253C44.1061 43.734 44.4355 43.0657 44.6301 42.4747C44.9492 42.746 45.3618 42.984 45.9008 43.1103C46.1051 43.158 46.3278 43.183 46.5698 43.183C47.0745 43.183 47.5005 43.0793 47.5668 43.0633L47.5715 43.062L48.2811 42.8743L47.9675 42.2157L47.9661 42.2123C47.9281 42.1237 47.3621 40.811 47.9895 38.951C48.2641 38.1343 48.4041 37.4033 48.4725 36.8343C48.9201 37.0657 49.5185 37.2573 50.2925 37.26C52.0238 37.26 52.8015 35.9913 52.8568 35.9013L52.8588 35.898L53.2051 35.2983L52.5638 35.035C50.4688 34.1697 50.0058 31.8454 49.9128 30.5882C50.1021 30.6242 50.3185 30.6575 50.5625 30.6643L50.6705 30.6677ZM49.4975 21.4257C49.0295 20.9443 48.5348 20.8008 48.1105 20.8008C47.4511 20.8008 46.9571 21.1476 46.9571 21.1476C47.9145 21.6546 48.4605 22.3272 48.9191 22.8921C49.3098 23.3734 49.6371 23.7766 50.1015 23.9327C50.2728 23.9919 50.4458 24.0177 50.6185 24.0177C51.3631 24.0177 52.0821 23.5383 52.3308 22.9917C52.3308 22.9917 50.9658 22.9087 49.4975 21.4257ZM48.4461 23.2725C48.0121 22.7374 47.5168 22.1336 46.6675 21.6835L45.7951 21.2163L46.6055 20.6486L46.6158 20.6419C46.7215 20.5747 47.3171 20.1957 48.1105 20.1957C48.7861 20.1957 49.4141 20.4724 49.9328 20.9981C51.1938 22.2798 52.3275 22.3831 52.3685 22.3845L53.2491 22.4362L52.8848 23.2399C52.5235 24.0416 51.5691 24.6202 50.6188 24.6202C50.3741 24.6202 50.1355 24.5835 49.9115 24.5067C49.2855 24.3005 48.8831 23.8078 48.4618 23.292L48.4461 23.2725ZM47.0665 29.6908V29.7214C46.5551 25.6158 43.5601 22.6505 40.2258 20.8486C39.9185 20.684 39.6328 20.5453 39.3575 20.412C40.3715 20.5684 42.0065 20.5868 43.2675 19.4982C43.2675 19.4982 41.3375 20.9111 37.3838 19.6274C37.7008 19.8323 38.1051 20.0617 38.5665 20.3236C39.6958 20.9645 41.1678 21.8 42.5468 22.947C47.4005 27.192 43.9282 31.3323 43.9282 31.3323C45.6718 29.5202 45.7441 27.5802 45.2311 25.9946C46.1501 27.517 46.7378 29.3631 46.6455 31.6403C46.5115 34.9033 44.7105 37.7247 42.8138 39.9917C41.9025 41.0923 41.6995 42.4443 41.6995 42.4443C41.6995 42.4443 42.0678 41.251 43.1222 40.0237C45.1531 37.656 46.8915 35.198 47.1181 31.6539C47.3288 32.2971 48.1945 34.084 49.5668 34.7573C49.5668 34.7573 47.8418 33.723 47.0665 29.6908ZM15.7308 40.9073C15.7308 40.9073 15.6016 45.225 20.6602 45.225H20.6964C20.6964 45.225 20.2537 44.6213 20.1239 42.886C19.8834 39.682 17.7026 39.242 17.7026 39.242C17.7026 39.242 18.8667 39.0967 19.3716 38.647C20.1587 37.9363 20.1027 37.1143 20.1027 37.1143C18.3229 37.09 17.158 36.4867 16.2637 35.4647C15.3072 34.3573 15.1487 33.1638 15.1487 33.1638C15.1487 33.1638 16.1052 34.0267 17.9533 34.0267C18.1193 34.0267 18.2915 34.0193 18.4705 34.0017C19.3477 33.9317 19.9538 33.3773 19.9538 33.3773C18.025 32.1486 16.6743 30.004 17.8713 26.7735C18.8305 24.1856 21.1364 22.2518 23.4608 20.7953C24.2328 20.3152 24.6626 19.7808 24.6626 19.3218C24.6626 18.6589 24.0831 18.3892 23.4886 18.1125C23.1128 17.9376 22.7311 17.7599 22.4858 17.4784C21.7548 16.6339 22.2125 15.2645 22.8445 14.4404C22.8445 14.4404 22.6348 14.3968 22.2965 14.3968C21.6283 14.3968 20.4724 14.5634 19.5213 15.5453C18.2553 16.8447 18.7814 18.2611 18.7814 18.2611L18.4431 18.3263C18.255 18.3662 18.0652 18.376 17.8735 18.386L17.8303 18.3882C17.8065 18.3882 17.784 18.3887 17.7618 18.3893H17.7618C17.7401 18.3898 17.7187 18.3903 17.6964 18.3903C15.8572 18.3903 15.0414 16.4823 15.0414 16.4823C15.0414 16.4823 13.0921 18.8683 15.963 20.7395C16.457 21.0591 16.6743 21.3563 16.6162 21.6718L16.5725 21.8798L16.3634 21.9159C14.3741 22.4543 13.3224 23.7863 12.1079 25.3245C12.0539 25.3928 11.9997 25.4615 11.945 25.5306C9.99372 28.0009 7.23348 28.0804 6.89048 28.0804H6.85222C6.85222 28.0804 7.48285 30.0612 9.34192 30.0612C9.37128 30.0612 9.39928 30.0612 9.43005 30.0591C10.2848 30.0285 10.7227 29.7042 10.7227 29.7042C10.7227 29.7042 11.0527 34.1993 7.68302 35.5933C7.68302 35.5933 8.29658 36.6547 9.70332 36.6547H9.71972C11.4107 36.6453 12.0905 35.62 12.0905 35.62C12.0905 35.62 11.9922 36.954 12.5982 38.7537C13.3313 40.925 12.5961 42.4747 12.5961 42.4747C12.5961 42.4747 12.9883 42.5807 13.4433 42.5807C13.6189 42.5807 13.7993 42.5637 13.968 42.5193C15.3782 42.1857 15.7308 40.9073 15.7308 40.9073ZM21.1968 44.876C21.1978 44.8777 21.1984 44.8787 21.1984 44.879L21.814 45.8147L20.7017 45.8297C18.8645 45.8297 17.4599 45.325 16.4822 44.3257C15.9075 43.734 15.5769 43.0657 15.3835 42.4747C15.0665 42.746 14.6498 42.984 14.1107 43.1103C13.9085 43.158 13.685 43.183 13.4439 43.183C12.9287 43.183 12.4921 43.0747 12.4428 43.0623L12.4423 43.062L11.731 42.8743L12.046 42.2157L12.0481 42.2107C12.0924 42.1063 12.6481 40.7987 12.0234 38.951C11.7488 38.1337 11.6087 37.4033 11.5404 36.8343C11.0929 37.0657 10.4951 37.2573 9.72572 37.2593C7.97882 37.2593 7.19975 35.9733 7.15498 35.8997L7.15409 35.898L6.80835 35.2977L7.44785 35.035C9.54262 34.1697 10.0072 31.8454 10.1022 30.5882C9.90952 30.6242 9.69295 30.6576 9.45245 30.6644L9.34245 30.6678C7.06318 30.6678 6.30279 28.3613 6.27272 28.2627L6.01172 27.4495L6.86985 27.476C7.17115 27.476 9.68952 27.41 11.4693 25.156L11.6374 24.9472L11.6494 24.9321C12.8092 23.4641 13.9111 22.0695 15.8816 21.4325C15.8242 21.3815 15.7457 21.3183 15.6315 21.2455C14.5835 20.5608 13.9734 19.7271 13.8217 18.7602C13.5991 17.3333 14.4946 16.1891 14.5627 16.102L14.5657 16.0982L15.2066 15.3183L15.6015 16.2437C15.6268 16.3022 16.2908 17.7845 17.6969 17.7845H17.8001C17.8237 17.7831 17.8471 17.7819 17.8702 17.7806H17.8702H17.8703H17.8703C17.9403 17.7768 18.0084 17.7731 18.0761 17.7675C18.0283 17.1066 18.1506 16.0846 19.0845 15.1224C20.2057 13.9678 21.5777 13.7938 22.2971 13.7938C22.6383 13.7938 22.875 13.8311 22.9443 13.842C22.9532 13.8434 22.9594 13.8444 22.9625 13.8448L23.9252 14.0338L23.3308 14.809C22.8669 15.406 22.446 16.5095 22.9455 17.0848C23.0941 17.2563 23.39 17.3969 23.6839 17.5366L23.7462 17.5662C24.3912 17.8613 25.2705 18.2741 25.2705 19.3219C25.2705 19.9991 24.7458 20.709 23.7872 21.3121C20.947 23.0868 19.1993 24.9397 18.4437 26.9844C17.276 30.1299 18.7963 31.9236 20.2822 32.8695L20.947 33.2945L20.3643 33.8263C20.2857 33.8957 19.5738 34.519 18.5216 34.6087C18.3235 34.621 18.1349 34.6327 17.9538 34.6327C17.2788 34.6327 16.7076 34.5273 16.2416 34.385C16.3715 34.6087 16.53 34.8373 16.726 35.067C17.5726 36.0423 18.6172 36.487 20.1101 36.5113L20.671 36.5203L20.7086 37.0757C20.7154 37.188 20.7578 38.218 19.778 39.0947C19.6277 39.2307 19.4494 39.342 19.2561 39.4323C19.9229 40.028 20.5979 41.0657 20.7304 42.8417C20.8396 44.27 21.1703 44.831 21.1968 44.876ZM10.5144 21.4249C10.9838 20.9442 11.4778 20.8 11.9041 20.8C12.56 20.8 13.0567 21.1468 13.0567 21.1468C12.1021 21.6536 11.5557 22.3247 11.0964 22.889C10.7033 23.3719 10.374 23.7765 9.90702 23.9326C9.74028 23.9918 9.56675 24.0176 9.39388 24.0176C8.64985 24.0176 7.92905 23.5383 7.68312 22.9916C7.68312 22.9916 9.04818 22.9086 10.5144 21.4249ZM9.39362 24.6202C9.63818 24.6202 9.87595 24.5841 10.1014 24.5073C10.7298 24.3002 11.1324 23.8064 11.5536 23.2897L11.5676 23.2725L11.5799 23.2575C12.0134 22.7267 12.5014 22.1293 13.344 21.6834L14.2186 21.2163L13.4062 20.6485L13.3953 20.6416C13.2886 20.5736 12.6955 20.1956 11.9038 20.1956C11.2267 20.1956 10.5981 20.4717 10.0796 20.998C8.81832 22.2804 7.68758 22.3838 7.64658 22.3844L6.76658 22.4361L7.12802 23.2398C7.49082 24.0415 8.44528 24.6202 9.39362 24.6202ZM14.7817 25.9947C13.8621 27.5171 13.2745 29.3626 13.3695 31.6404C13.5013 34.9037 15.3023 37.7253 17.1949 39.9917C18.1104 41.0913 18.3161 42.4443 18.3161 42.4443C18.3161 42.4443 17.9444 41.251 16.8908 40.023C14.8596 37.656 13.1222 35.1967 12.8926 31.654C12.6822 32.2973 11.8179 34.0843 10.4473 34.7573C10.4473 34.7573 12.1711 33.7233 12.9452 29.6903V29.7223C13.4583 25.616 16.4529 22.6506 19.7877 20.8487C20.0619 20.7013 20.3218 20.5741 20.5694 20.453L20.6554 20.4108C19.6422 20.5686 18.0072 20.587 16.7453 19.4983C16.7453 19.4983 18.6761 20.9113 22.6285 19.6275C22.3117 19.8322 21.9083 20.0612 21.448 20.3227L21.448 20.3227C20.319 20.9638 18.8474 21.7995 17.4682 22.9471C12.6125 27.1921 16.086 31.3331 16.086 31.3331C14.3383 29.5203 14.2686 27.5797 14.7817 25.9947ZM28.8641 23.3335V24.1473C29.1463 23.806 29.6907 23.876 29.6907 23.876V25.0488C29.6907 25.0488 29.6723 25.6267 29.466 25.8763H30.0576H30.6458C30.4429 25.6267 30.4217 25.0488 30.4217 25.0488V23.876C30.4217 23.876 30.9682 23.806 31.2476 24.1473V23.3335H30.0576H28.8641ZM28.9505 18.8542C28.9054 18.8396 28.6958 18.7716 28.357 18.5045C27.7326 18.0225 27.7203 17.5785 27.7203 17.5785L29.1071 18.1585V18.9247L28.9595 18.8574C28.9587 18.8569 28.9557 18.8559 28.9505 18.8542H28.9505ZM31.6543 18.5045C32.2807 18.0225 32.293 17.5785 32.293 17.5785L30.9056 18.1585V18.9247L31.0524 18.8574C31.0532 18.8569 31.0562 18.8559 31.0614 18.8542C31.1065 18.8396 31.3161 18.7716 31.6543 18.5045ZM26.6647 15.1498L30.005 16.4628L33.3461 15.1498C33.0638 14.48 31.7541 13.9116 30.005 13.9095C28.2587 13.9116 26.9496 14.48 26.6647 15.1498ZM30.2503 21.7542L32.496 20.5779L33.2968 15.9575L30.2503 16.987V21.7542ZM34.9135 22.4356L33.8865 21.8426L32.8315 21.2409L30.0132 22.7681L30.005 22.7619L29.9995 22.7681L27.1812 21.2409L26.1264 21.8426L25.0974 22.4356H25.0865L24.8262 22.5858C25.4062 22.7449 25.8469 23.0305 26.2213 23.4099C26.2273 23.4156 26.2327 23.4218 26.2382 23.4281C26.2465 23.4376 26.255 23.4473 26.2657 23.4555C26.3484 23.5439 26.4304 23.6404 26.5089 23.737C26.5124 23.7412 26.5158 23.7453 26.5192 23.7494C26.534 23.7673 26.5486 23.7848 26.5636 23.8064C26.636 23.9016 26.7092 24.0042 26.7802 24.1083C26.7891 24.1198 26.7978 24.1329 26.8067 24.1463C26.8135 24.1567 26.8206 24.1673 26.828 24.1776C26.9127 24.3041 26.9927 24.4367 27.0719 24.5727C27.8016 25.8259 28.9686 26.5752 30.005 26.5765C31.0429 26.5752 32.2091 25.8259 32.9401 24.5727C33.0208 24.4333 33.1028 24.2973 33.1875 24.1715C33.1998 24.1538 33.2134 24.1348 33.225 24.1164C33.2968 24.0083 33.3725 23.9029 33.4511 23.8016C33.4598 23.7904 33.4685 23.7795 33.4768 23.769C33.4845 23.7591 33.4921 23.7496 33.4991 23.7404C33.5805 23.6404 33.6645 23.5432 33.7498 23.4521C33.7565 23.4459 33.7628 23.4396 33.7691 23.4334C33.7761 23.426 33.7835 23.4189 33.7908 23.4127C34.1631 23.0339 34.6051 22.7449 35.1851 22.5858L34.9268 22.4356H34.9135ZM37.5158 27.9909C37.5158 27.3408 37.7055 26.6874 37.9351 26.0836H32.6682C31.862 26.8798 31.0879 27.1756 30.3958 27.2436C30.2708 27.2565 30.1437 27.2647 30.0152 27.2647H30.005H29.9975C29.869 27.2647 29.7406 27.2565 29.6162 27.2436C29.4953 27.2334 29.3682 27.2143 29.2411 27.1851C29.196 27.3646 29.138 27.7379 29.3027 28.0942C29.4502 28.4158 29.7467 28.6559 30.1806 28.815L30.3268 28.8714L30.3288 29.0278C30.3288 29.0747 30.363 30.0892 31.4732 30.3707L31.48 30.3638C31.6584 30.1809 31.8205 30.0147 31.9412 29.8764C31.7144 29.344 31.8333 28.8014 32.1633 28.5355C32.1489 28.592 32.0041 29.9226 33.0754 30.417L33.2524 30.5013L33.1997 30.689C33.1827 30.7447 32.8253 32.0326 34.1228 32.5119L34.3525 32.5976L34.2511 32.82C34.2281 32.8703 33.7198 34.0383 34.9181 34.7013H37.5178V32.6486C36.5941 32.5357 36.2018 31.7966 36.1008 31.2724C35.6718 31.1996 35.3388 31.014 35.1101 30.7134C34.6231 30.074 34.9461 29.4835 35.0245 29.3401C35.0338 29.3231 35.0398 29.3124 35.0405 29.3086C35.0398 29.3148 35.0405 30.0117 35.4728 30.4415C35.6861 30.6482 35.9408 30.8093 36.3235 30.8454L36.5128 30.863L36.5298 31.0548C36.5331 31.0963 36.6365 32.0394 37.5178 32.1869L37.5158 27.9909ZM34.9781 42.863L34.6878 44.3677C36.4211 43.9433 37.5205 42.642 37.5205 40.7783L37.5178 35.155H22.4956V40.7783C22.4956 43.0787 24.1682 44.518 26.636 44.518C28.698 44.518 29.2411 44.5983 30.0084 45.355C30.5366 44.8303 30.9731 44.6343 31.8709 44.5617L31.8921 44.474L32.3662 43.0187C32.3396 42.9847 31.5655 42.1103 31.5655 42.1103C31.258 42.2117 30.9998 42.2287 30.568 42.2287C30.1232 42.2287 29.621 42.177 29.0772 42.075C29.0225 42.0627 28.9713 42.058 28.92 42.058C28.8531 42.058 28.8496 42.0627 28.8312 42.0953L28.7376 42.2497L28.5654 42.5333L28.2402 42.4583L26.7993 42.1207L26.6018 42.4457L26.6312 42.4803L26.8055 42.6727L26.7275 42.923C26.6223 43.2507 26.278 43.634 26.1728 43.7387L25.8127 44.1243L25.4848 43.711L25.2381 43.403C24.9792 43.114 24.919 42.6727 25.0653 42.2083C25.0618 42.2117 25.0557 42.2137 25.0502 42.215L24.6437 42.3823L24.4613 41.9873L24.3322 41.707C24.1108 41.2127 24.1921 40.492 24.7886 40.0553L25.9487 39.404L27.0534 39.6203C27.0654 39.573 27.0797 39.4713 27.0948 39.3647C27.1134 39.2333 27.1331 39.0943 27.1505 39.041C27.1434 39.04 27.1365 39.039 27.1296 39.0377C27.1158 39.0353 27.102 39.0327 27.0869 39.0327L26.4515 39.2693L25.8373 38.8493C25.8373 38.8493 25.5982 38.618 25.8148 38.3883L26.4085 37.4927L24.9034 35.6113L27.2174 36.5577L27.3718 36.3673L27.6841 35.9953L28.0387 36.3307C28.1391 36.4273 28.1965 36.5453 28.2245 36.6643C28.8613 36.9107 30.005 37.6403 30.1061 38.826L29.7481 38.969V38.9763C29.8308 39.0737 29.8977 39.113 29.9189 39.117L31.5716 39.279C31.599 39.2737 31.6309 39.2637 31.6664 39.253C31.6849 39.2473 31.7043 39.2413 31.7247 39.2353C31.9289 39.1667 32.2371 39.0653 32.6033 39.0653C32.9005 39.0653 33.1874 39.1327 33.4648 39.262C33.5668 39.224 33.6918 39.1953 33.8371 39.1863L33.9165 39.1843C34.8001 39.1843 35.2401 39.8397 35.5925 40.3643L35.5938 40.3663C35.6525 40.458 35.7105 40.5423 35.7715 40.628C36.0808 41.0617 36.4835 41.695 36.5005 41.7233L36.6821 42.0063L36.4595 42.2647C36.2878 42.4627 36.0292 42.6943 35.5861 42.6943C35.4955 42.6943 35.3965 42.6843 35.2871 42.6637C35.1935 42.646 35.1075 42.6183 35.0255 42.5843C35.0125 42.6707 34.9938 42.774 34.9781 42.863ZM25.5134 41.3827L25.4355 41.188C25.3795 41.0617 25.387 40.9243 25.4943 40.8497L26.1262 40.4157L27.1817 40.617C27.1817 40.617 26.9911 40.379 27.0095 40.061L26.0019 39.8487L25.0516 40.424C24.6437 40.728 24.6144 41.2233 24.7496 41.518L24.8754 41.7933C24.8754 41.7933 25.4622 41.5533 25.5134 41.3827ZM34.2048 44.4603L34.5295 42.778C34.5655 42.5943 34.5998 42.3483 34.5998 42.3483C34.5815 42.33 34.5598 42.309 34.5355 42.2853C34.3898 42.1437 34.1468 41.908 34.0005 41.631C33.8798 41.4 33.8571 41.227 33.8315 41.0317C33.8088 40.8567 33.7835 40.664 33.6835 40.3953C33.6835 40.3953 33.7485 40.2637 33.8988 40.2637C33.9218 40.2637 33.9478 40.2663 33.9725 40.273C34.1695 40.3287 34.3041 40.6613 34.4561 41.0367C34.6618 41.5453 34.8998 42.133 35.3685 42.219C35.4488 42.2347 35.5222 42.2403 35.5861 42.2403C35.8228 42.2403 35.9628 42.141 36.1138 41.9627C36.1138 41.9627 35.7038 41.3223 35.3985 40.8897C35.3338 40.7997 35.2715 40.707 35.2091 40.6143C34.8791 40.1233 34.5545 39.64 33.9165 39.64C33.8988 39.64 33.8768 39.64 33.8585 39.6427C33.6085 39.6543 33.4545 39.776 33.4545 39.776C33.1479 39.5843 32.8609 39.519 32.6033 39.519C32.311 39.519 32.0586 39.601 31.8645 39.6643C31.7433 39.7037 31.6449 39.736 31.5737 39.736H31.5669L29.8752 39.5687C29.6101 39.544 29.4004 39.279 29.3252 39.1743C29.3068 39.1463 29.2965 39.1293 29.2965 39.1293C29.2965 39.0843 29.2965 39.037 29.2938 38.9953C29.2364 37.6177 28.1644 37.0283 27.7825 37.0187C27.7825 37.0187 27.8276 36.7577 27.7244 36.657L27.3507 37.1077L26.1264 36.496L27.0009 37.5123L26.261 38.3393C26.1674 38.4337 26.1789 38.5603 26.2179 38.614L26.5377 38.8953L26.9435 38.6513C26.9633 38.6357 27.0009 38.6317 27.0446 38.6317C27.0965 38.6317 27.1604 38.6377 27.2292 38.6443C27.309 38.652 27.3953 38.6603 27.4764 38.6603C27.6418 38.6603 27.7845 38.6253 27.8016 38.471C27.7863 38.6253 27.7323 38.8137 27.6729 39.021C27.5355 39.5 27.3693 40.079 27.5878 40.566L27.8201 41.0937L26.3231 40.8783L25.6228 42.056C25.4062 42.4477 25.3727 42.8713 25.5798 43.1023L25.8421 43.4287C25.8421 43.4287 26.2097 43.0413 26.2917 42.7857L26.1728 42.6557C26.0724 42.5453 26.0779 42.4477 26.1394 42.33L26.578 41.6057L28.3448 42.0193L28.4391 41.8613C28.5587 41.663 28.7308 41.6037 28.9201 41.6037C28.9986 41.6037 29.0786 41.6127 29.1612 41.6263C29.4892 41.6907 30.0282 41.7763 30.568 41.7763C31.1597 41.7763 31.7486 41.671 32.0615 41.3223C32.3891 41.8057 32.8892 42.081 33.2853 42.299C33.6625 42.5067 33.9451 42.6623 33.8955 42.8963L33.5545 44.5127C33.7798 44.5037 33.9978 44.4887 34.2048 44.4603ZM32.3451 44.534C32.5329 44.5267 32.744 44.524 32.9715 44.524C32.9715 44.524 33.5155 42.942 33.5461 42.8917C33.2414 42.7583 32.6095 42.4243 32.3649 42.2713C32.4176 42.35 32.495 42.4323 32.5726 42.5147C32.7325 42.6843 32.8932 42.8547 32.8404 42.9977L32.3451 44.534ZM25.6713 28.0071L25.6009 30.6777L25.9063 30.7246L26.6523 28.1608L26.2738 27.3728L25.6713 28.0071ZM26.4336 31.9264C26.3099 31.8482 26.1323 31.7116 26.0333 31.5056C25.9212 31.2683 25.7593 31.1581 25.5237 31.1581C25.2162 31.1581 24.8883 31.3417 24.7469 31.4281C24.6349 32.0869 25.1226 32.6838 25.4498 32.8042C25.7463 32.9116 26.1064 32.934 26.2908 32.934C26.2933 32.926 26.2962 32.9172 26.2994 32.9076C26.3052 32.8905 26.3117 32.8711 26.3175 32.8497C26.3332 32.796 26.3482 32.7409 26.3605 32.6824C26.4117 32.4173 26.4302 32.1188 26.4336 31.9264ZM30.9205 33.731C31.3537 33.43 32.5473 32.5629 33.0098 32.2236C32.673 31.7341 32.6409 31.1527 32.7167 30.7447C32.496 30.604 32.3279 30.4442 32.1934 30.2755C31.6819 30.8306 30.7266 31.7558 30.5086 31.9669C30.4854 31.9894 30.4706 32.0037 30.4655 32.0088L30.3978 32.0768L26.8963 32.021C26.8936 32.3671 26.8375 32.6602 26.7829 32.8757C26.7776 32.8972 26.7718 32.9191 26.766 32.9413C26.762 32.9563 26.7581 32.9714 26.7542 32.9866L30.9205 33.731ZM28.8012 27.0559C28.3359 26.8873 27.8453 26.5786 27.3438 26.0836H22.0782C22.3044 26.6874 22.4957 27.3408 22.4957 27.9909V34.7013H34.1801C33.5961 34.1017 33.6055 33.3423 33.7525 32.8499C33.5831 32.7683 33.4431 32.6711 33.318 32.5636C32.8609 32.8988 31.4685 33.908 31.103 34.1623L31.0251 34.2133L26.4399 33.3897H26.3463C26.2363 33.3897 26.0758 33.385 25.8995 33.364C25.8503 33.57 25.6713 33.71 25.467 33.71C25.4438 33.71 25.4178 33.7087 25.3939 33.704C25.2744 33.6837 25.1705 33.623 25.1009 33.523C25.0291 33.425 25.0011 33.3082 25.0209 33.1885L25.0373 33.0892C24.5652 32.7581 24.1286 32.0176 24.322 31.2363L24.3404 31.1534L24.4081 31.1065C24.4169 31.099 24.4962 31.0453 24.6144 30.9786L24.2816 30.9276C24.1566 30.9059 24.0726 30.7896 24.0924 30.6679C24.1136 30.5441 24.2311 30.4544 24.3541 30.4782L25.148 30.604L25.2204 27.8222L26.4017 26.5786L27.1389 28.1228L26.3607 30.7984L27.0617 30.9086C27.1854 30.9283 27.2694 31.0432 27.2509 31.1697C27.2325 31.2819 27.1369 31.3574 27.0261 31.3574C27.0139 31.3574 27.0022 31.3574 26.9899 31.356L26.4202 31.2649C26.4237 31.2729 26.4279 31.2792 26.4322 31.2855C26.437 31.2926 26.4418 31.2997 26.4454 31.3091C26.5056 31.4349 26.6408 31.5233 26.7201 31.5627L30.2148 31.6178L30.229 31.6039C30.3856 31.4517 30.7422 31.105 31.1077 30.7379C30.2469 30.4136 29.9346 29.6765 29.882 29.1862C29.4017 28.9823 29.0697 28.6769 28.8852 28.2805C28.6611 27.7889 28.7404 27.2959 28.8012 27.0559ZM29.7617 16.987L26.7125 15.9575L27.516 20.5779L29.7617 21.7542V16.987ZM30.0125 13.1724C32.1838 13.1724 34.1515 14.2189 34.1515 15.3823L34.1091 15.6686L33.2414 20.6228L34.1091 21.126L36.3665 22.4356H36.3585C36.3585 22.4356 36.8658 22.6946 37.0975 22.8544C37.9605 23.4467 38.1408 24.3129 37.6421 24.6706C37.5178 23.9648 36.9581 23.2277 35.9095 23.2277C35.1531 23.2277 34.5778 23.6139 34.1091 24.198C33.9925 24.3449 33.8788 24.502 33.7715 24.6706C33.6405 24.8841 33.5105 25.0711 33.3808 25.2506H39.1875C38.7591 26.1046 38.3548 27.0083 38.3548 27.9909V40.7783C38.3548 43.874 35.9661 45.3503 33.3775 45.3503C33.2267 45.3503 33.0857 45.3497 32.9535 45.3493C31.3309 45.3433 31.0237 45.3423 30.0084 46.354C28.9888 45.3423 28.6812 45.3433 27.0596 45.3493C26.9275 45.3497 26.7866 45.3503 26.636 45.3503C24.0493 45.3503 21.6573 43.874 21.6573 40.7783V27.9909C21.6573 27.0083 21.2522 26.1046 20.8252 25.2506H26.6313C26.5007 25.0711 26.3696 24.8841 26.2391 24.6706C26.1338 24.502 26.0197 24.3449 25.8995 24.198C25.4356 23.616 24.8589 23.2277 24.1033 23.2277C23.0532 23.2277 22.4929 23.9648 22.3699 24.6706C21.8719 24.3129 22.0543 23.4467 22.9125 22.8544C23.1475 22.6946 23.6544 22.4356 23.6544 22.4356H23.6462L25.8995 21.126L26.7713 20.6228L25.9036 15.6686L25.8605 15.3823C25.8605 14.2189 27.8282 13.1724 29.9995 13.1724H30.005H30.0105H30.0125Z" fill="#231F20"/>
</svg>
