<svg width="220" height="55" viewBox="0 0 220 55" fill="none" xmlns="http://www.w3.org/2000/svg">
<path d="M0.958984 10.589C0.958984 5.29437 5.24944 1.04956 10.4984 1.04956H44.0918C49.3864 1.04956 53.6312 5.34002 53.6312 10.589V44.1823C53.6312 49.4769 49.3407 53.7218 44.0918 53.7218H10.4984C5.2038 53.7218 0.958984 49.4313 0.958984 44.1823V10.589Z" fill="#072DA0"/>
<path d="M44.1373 54.2696H10.4983C4.92981 54.2696 0.411133 49.7509 0.411133 44.1825V10.5891C0.411133 5.02063 4.92981 0.501953 10.4983 0.501953H44.0916C49.6601 0.501953 54.1788 5.02063 54.1788 10.5891V44.1825C54.1788 49.7509 49.6601 54.2696 44.1373 54.2696ZM10.4983 1.59739C5.52317 1.59739 1.50657 5.65963 1.50657 10.5891V44.1825C1.50657 49.1576 5.56881 53.1742 10.4983 53.1742H44.0916C49.0667 53.1742 53.0833 49.1119 53.0833 44.1825V10.5891C53.0833 5.61399 49.0211 1.59739 44.0916 1.59739H10.4983Z" fill="#F8FAFF"/>
<path d="M13.876 13.9668H19.2619V19.3527H24.6478V24.7386H30.0337V30.1245H24.6478V35.5104H19.2619V40.8963H13.876V30.1245H19.2619V24.7386H13.876V13.9668Z" fill="white"/>
<path d="M29.9883 35.4647V30.0789H35.3742V35.4647H29.9883Z" fill="white"/>
<path d="M35.374 35.4646H40.7599V40.8505H35.374V35.4646Z" fill="white"/>
<path d="M29.9884 35.4646H24.6025V40.8505H29.9884V35.4646Z" fill="white"/>
<path d="M35.3743 30.0788V24.6929H29.9884V19.307H24.6025V13.9668H35.3743V19.3527H40.7602V30.1245H35.3743V30.0788Z" fill="white"/>
<path d="M82.3407 35.3733L82.295 25.7426L77.5481 33.6845H75.905L71.1581 25.9251V35.3733H67.6436V19.2612H70.7473L76.7722 29.2571L82.7058 19.2612H85.8095L85.8552 35.3733H82.3407Z" fill="#072DA0"/>
<path d="M95.1661 35.556C93.8424 35.556 92.7013 35.2821 91.6515 34.7344C90.6017 34.1867 89.8258 33.4107 89.2325 32.4522C88.6391 31.4937 88.3652 30.3983 88.3652 29.1659C88.3652 27.9336 88.6391 26.8381 89.2325 25.8796C89.8258 24.9211 90.6474 24.1452 91.6515 23.6431C92.7013 23.0954 93.8881 22.8215 95.1661 22.8215C96.4897 22.8215 97.6308 23.0954 98.6806 23.6431C99.7304 24.1908 100.506 24.9211 101.1 25.8796C101.693 26.8381 101.967 27.9336 101.967 29.1659C101.967 30.3983 101.693 31.4937 101.1 32.4522C100.506 33.4107 99.6847 34.1867 98.6806 34.7344C97.6308 35.3278 96.4897 35.556 95.1661 35.556ZM95.1661 32.6348C96.0789 32.6348 96.8549 32.3153 97.4482 31.7219C98.0416 31.0829 98.3611 30.2614 98.3611 29.2116C98.3611 28.1618 98.0416 27.3402 97.4482 26.7468C96.8549 26.1078 96.1246 25.7883 95.1661 25.7883C94.2532 25.7883 93.4773 26.1078 92.8839 26.7468C92.2905 27.3402 91.971 28.2074 91.971 29.2116C91.971 30.2614 92.2905 31.0829 92.8839 31.7219C93.4773 32.3153 94.2532 32.6348 95.1661 32.6348Z" fill="#072DA0"/>
<path d="M117.988 32.452V38.0661H114.656V35.4188H105.892V38.0661H102.561V32.452H103.063C103.839 32.452 104.341 31.9956 104.66 31.0827C104.934 30.2155 105.117 28.9375 105.208 27.2944L105.39 23.0039H116.208V32.452H117.988ZM108.449 27.5682C108.403 28.8462 108.312 29.8504 108.129 30.672C107.992 31.4479 107.718 32.0869 107.307 32.4977H112.556V26.0164H108.494L108.449 27.5682Z" fill="#072DA0"/>
<path d="M132.456 23.0039L126.842 36.1491C126.295 37.5641 125.564 38.5682 124.697 39.1616C123.876 39.7549 122.871 40.0288 121.685 40.0288C121.046 40.0288 120.407 39.9375 119.768 39.7093C119.129 39.5267 118.627 39.2529 118.216 38.8877L119.539 36.3317C119.813 36.5599 120.133 36.7881 120.498 36.9251C120.863 37.062 121.228 37.1533 121.593 37.1533C122.095 37.1533 122.506 37.0164 122.78 36.7881C123.1 36.5599 123.373 36.1491 123.602 35.6014L123.647 35.4645L118.261 23.0039H121.959L125.427 31.4022L128.942 23.0039H132.456Z" fill="#072DA0"/>
<path d="M144.964 23.0041V35.3734H141.358V25.9253H137.432L137.295 28.1162C137.25 29.7593 137.067 31.083 136.839 32.1784C136.611 33.2738 136.2 34.0954 135.652 34.6888C135.105 35.2821 134.329 35.6016 133.324 35.6016C132.822 35.6016 132.183 35.5103 131.453 35.3278L131.636 32.361C131.864 32.4066 132.046 32.4066 132.183 32.4066C132.731 32.4066 133.142 32.224 133.37 31.8133C133.644 31.4025 133.827 30.9004 133.918 30.307C134.009 29.7137 134.1 28.8921 134.146 27.8879L134.329 22.9128H144.964V23.0041Z" fill="#072DA0"/>
<path d="M154.913 26.9749C156.511 26.9749 157.789 27.34 158.611 28.0703C159.478 28.7549 159.889 29.7591 159.889 31.0827C159.889 32.452 159.386 33.5018 158.428 34.2778C157.469 35.0081 156.146 35.4188 154.411 35.4188L148.158 35.3732V23.0039H151.718V26.9749H154.913ZM154.137 32.8628C154.822 32.8628 155.37 32.7259 155.735 32.4064C156.1 32.0869 156.283 31.6305 156.283 31.0371C156.283 30.4437 156.1 29.9873 155.735 29.7134C155.37 29.4396 154.868 29.3027 154.137 29.257L151.81 29.2114V32.8172H154.137V32.8628Z" fill="#072DA0"/>
<path d="M169.108 23.8712C170.295 23.8712 171.345 24.0994 172.212 24.6015C173.125 25.058 173.81 25.7426 174.266 26.6098C174.768 27.477 174.996 28.4812 174.996 29.6679C174.996 30.8546 174.723 31.9044 174.129 32.8173C173.581 33.7302 172.76 34.4148 171.71 34.9169C170.66 35.4189 169.519 35.6472 168.196 35.6472C166.005 35.6472 164.316 34.9625 163.084 33.5932C161.851 32.1783 161.258 30.17 161.258 27.477C161.258 25.0123 161.806 23.004 162.855 21.5434C163.951 20.0372 165.64 19.0787 167.876 18.6223L173.764 17.4355L174.266 20.5393L169.063 21.5891C167.648 21.8629 166.598 22.3194 165.913 22.9584C165.229 23.5974 164.818 24.5102 164.727 25.697C165.274 25.1036 165.913 24.6472 166.644 24.3733C167.42 24.0082 168.241 23.8712 169.108 23.8712ZM168.287 32.8629C169.2 32.8629 169.93 32.5434 170.523 31.9501C171.071 31.3567 171.391 30.5808 171.391 29.6679C171.391 28.755 171.117 27.9791 170.523 27.4314C169.976 26.8837 169.245 26.6098 168.287 26.6098C167.328 26.6098 166.598 26.8837 166.005 27.4314C165.457 27.9791 165.137 28.7094 165.137 29.6679C165.137 30.5808 165.411 31.3567 166.005 31.9501C166.598 32.5891 167.374 32.8629 168.287 32.8629Z" fill="#072DA0"/>
<path d="M181.888 22.8215C183.805 22.8215 185.266 23.278 186.316 24.1908C187.365 25.1037 187.867 26.473 187.867 28.2987V35.3734H184.49V33.8672C183.805 35.0083 182.573 35.6016 180.701 35.6016C179.743 35.6016 178.921 35.419 178.191 35.0995C177.506 34.78 176.959 34.3236 176.594 33.7759C176.228 33.2282 176.046 32.5435 176.046 31.8589C176.046 30.7178 176.457 29.8049 177.324 29.1659C178.191 28.5269 179.56 28.1618 181.34 28.1618H184.216C184.216 27.3858 183.988 26.7925 183.486 26.3817C183.029 25.9709 182.299 25.7427 181.34 25.7427C180.701 25.7427 180.017 25.834 179.378 26.0622C178.739 26.2448 178.191 26.5186 177.78 26.8838L176.502 24.3734C177.187 23.917 178.009 23.5518 178.921 23.278C179.88 22.9585 180.884 22.8215 181.888 22.8215ZM181.569 33.1825C182.162 33.1825 182.71 33.0456 183.212 32.7717C183.668 32.4979 184.033 32.0414 184.216 31.4937V30.2157H181.751C180.291 30.2157 179.515 30.7178 179.515 31.6763C179.515 32.1327 179.697 32.4979 180.062 32.7717C180.473 33.0456 180.975 33.1825 181.569 33.1825Z" fill="#072DA0"/>
<path d="M190.743 23.0039H194.303V27.8421H199.689V23.0039H203.295V35.3732H199.689V30.7632H194.303V35.3732H190.743V23.0039Z" fill="#072DA0"/>
<path d="M212.013 30.7176H210.142V35.4189H206.536V23.0496H210.142V27.8421H212.059L215.437 23.0496H219.271L214.934 28.9832L219.59 35.4189H215.345L212.013 30.7176Z" fill="#072DA0"/>
</svg>
