<svg width="107" height="80" viewBox="0 0 107 80" fill="none" xmlns="http://www.w3.org/2000/svg">
<path d="M27.1826 21.5637C26.801 21.5637 26.5677 21.797 26.5677 22.221V25.55H21.4577V22.221C21.4577 21.797 21.2245 21.5637 20.8428 21.5637C20.4612 21.5637 20.2279 21.797 20.2279 22.221V30.2571C20.2279 30.6812 20.4612 30.9144 20.8428 30.9144C21.2245 30.9144 21.4577 30.6812 21.4577 30.2571V26.6949H26.5677V30.2571C26.5677 30.6812 26.801 30.9144 27.1826 30.9144C27.5643 30.9144 27.7975 30.6812 27.7975 30.2571V22.221C27.7763 21.797 27.5643 21.5637 27.1826 21.5637ZM33.48 26.1224L37.0209 22.5603C37.1906 22.3907 37.2542 22.2634 37.2542 22.0726C37.2542 21.797 37.0633 21.5637 36.7241 21.5637C36.5545 21.5637 36.406 21.6274 36.2576 21.7758L32.7803 25.2531C32.5895 25.4439 32.3986 25.55 32.123 25.55H31.4021V22.221C31.4021 21.797 31.1688 21.5637 30.7872 21.5637C30.4055 21.5637 30.1723 21.797 30.1723 22.221V30.2571C30.1723 30.6812 30.4055 30.9144 30.7872 30.9144C31.1688 30.9144 31.4021 30.6812 31.4021 30.2571V26.6949H32.0382C32.3138 26.6949 32.5046 26.801 32.6955 26.9918L36.3848 30.6812C36.5545 30.8508 36.6817 30.8932 36.8725 30.8932C37.2118 30.8932 37.4238 30.6387 37.4238 30.3419C37.4238 30.1511 37.339 30.0026 37.1694 29.8118L33.48 26.1224ZM41.1344 10.4956C40.5831 10.7925 39.8198 10.9833 39.0989 10.9833C37.9115 10.9833 37.1694 10.4744 37.1694 9.56268C37.1694 8.75696 37.8055 8.12086 39.0989 8.12086C39.7774 8.12086 40.3923 8.22688 41.1344 8.43891V10.4956ZM39.2685 3.03207C38.2295 3.03207 37.2966 3.28651 36.7029 3.54095C36.194 3.75298 35.982 4.02862 35.982 4.43149C35.982 4.89796 36.3424 5.23721 36.7665 5.23721C36.9785 5.23721 37.2118 5.1524 37.445 5.06758C37.8267 4.91916 38.484 4.74954 39.1201 4.74954C40.5407 4.74954 41.1344 5.27962 41.1344 6.38219V7.1243C40.3074 6.91227 39.6502 6.80625 38.8656 6.80625C36.5333 6.80625 35.3883 8.14206 35.3883 9.60509C35.3883 11.3014 36.6605 12.5736 38.9292 12.5736C40.6891 12.5736 42.0249 11.9799 42.5762 11.6194C42.8306 11.4498 42.9155 11.2801 42.9155 10.9197V6.40339C42.9367 4.09223 41.6009 3.03207 39.2685 3.03207ZM61.638 9.0326C61.2139 9.0326 60.9807 9.28704 60.8322 9.56268C60.5142 10.2624 59.8357 10.7501 58.9027 10.7501C57.5881 10.7501 56.8036 9.96554 56.6976 8.77816C56.634 8.14206 56.634 7.42115 56.6976 6.80625C56.8036 5.64007 57.5881 4.83435 58.9027 4.83435C59.8357 4.83435 60.5142 5.32202 60.8322 6.02173C61.0019 6.29737 61.2351 6.55181 61.638 6.55181C62.168 6.55181 62.5497 6.21256 62.5497 5.70368C62.5497 5.42804 62.4437 5.1524 62.2741 4.85555C61.7228 3.859 60.5566 3.03207 58.8603 3.03207C56.5704 3.03207 55.0437 4.47389 54.8529 6.53061C54.7893 7.20912 54.7893 8.35409 54.8529 9.0326C55.0437 11.0893 56.5704 12.5311 58.8603 12.5311C60.5566 12.5311 61.7228 11.7254 62.2741 10.7077C62.4437 10.4108 62.5285 10.1352 62.5285 9.85953C62.5285 9.37185 62.168 9.0114 61.638 9.0326ZM19.9947 10.8773L16.793 7.67559L19.8251 4.64352C20.0583 4.41028 20.1855 4.17705 20.1855 3.9014C20.1855 3.45613 19.8675 3.11688 19.401 3.11688C19.1254 3.11688 18.9345 3.2229 18.6801 3.47734L15.6056 6.55181C15.436 6.72144 15.2664 6.80625 15.0119 6.80625H14.3758V4.07103C14.3758 3.45614 14.0154 3.09568 13.4429 3.09568C12.8704 3.09568 12.5099 3.45614 12.5099 4.07103V11.4498C12.5099 12.0647 12.8704 12.4251 13.4429 12.4251C14.0154 12.4251 14.3758 12.0647 14.3758 11.4498V8.50252H14.9059C15.1391 8.50252 15.33 8.60853 15.4996 8.75696L18.7861 12.0435C19.0618 12.3191 19.2738 12.4251 19.5494 12.4251C20.0371 12.4251 20.3764 12.0859 20.3764 11.5982C20.3552 11.365 20.2279 11.1105 19.9947 10.8773ZM51.2059 8.77816C51.0999 9.94434 50.3578 10.7501 49.022 10.7501C48.3223 10.7501 47.453 10.538 47.0289 10.2412V5.34323C47.453 5.04638 48.3223 4.81315 49.022 4.81315C50.3578 4.81315 51.0999 5.61887 51.2059 6.78505C51.2483 7.39995 51.2695 8.14206 51.2059 8.77816ZM49.0856 3.03207C47.4742 3.03207 46.1596 3.60456 45.6507 3.92261C45.2266 4.17705 45.1842 4.36788 45.1842 5.08879V14.5455C45.1842 15.1603 45.5447 15.5208 46.1171 15.5208C46.6896 15.5208 47.0501 15.1603 47.0501 14.5455V12.0859C47.6014 12.3615 48.4495 12.5523 49.2552 12.5523C51.3968 12.5523 52.8598 11.1317 53.0718 9.07501C53.1354 8.3753 53.1354 7.23032 53.0718 6.53061C52.8598 4.45269 51.3756 3.03207 49.0856 3.03207ZM16.7718 29.2181C16.0933 29.5786 15.1603 29.8542 14.3122 29.8542C12.7856 29.8542 11.9163 29.1969 11.9163 28.0944C11.9163 27.0978 12.6796 26.3345 14.3122 26.3345C15.1179 26.3345 15.7964 26.4617 16.7718 26.7373V29.2181ZM14.5879 21.4789C13.5277 21.4789 12.4887 21.7758 11.9163 22.0302C11.5346 22.1998 11.365 22.3695 11.365 22.6663C11.365 22.9844 11.6194 23.2176 11.9163 23.2176C12.0647 23.2176 12.2343 23.154 12.4039 23.0692C12.828 22.8783 13.6549 22.6451 14.4606 22.6451C16.0509 22.6451 16.7718 23.2812 16.7718 24.723V25.5712C15.7752 25.2743 15.0543 25.1895 14.2062 25.1895C11.895 25.1895 10.7077 26.5253 10.7077 28.0307C10.7077 29.7906 12.0435 30.9568 14.1426 30.9568C15.8813 30.9568 17.2171 30.3419 17.7047 29.9814C17.8956 29.833 17.9592 29.727 17.9592 29.4514V24.6806C17.9804 22.5179 16.7082 21.4789 14.5879 21.4789ZM5.66128 29.621H2.20514V24.7018H5.66128C7.48476 24.7018 8.22688 25.5924 8.22688 27.119C8.20567 28.7093 7.46356 29.621 5.66128 29.621ZM5.8097 23.5356H2.18394V19.7403H8.22688C8.62974 19.7403 8.90538 19.507 8.90538 19.1254C8.90538 18.7649 8.62974 18.5317 8.22688 18.5317H2.03552C1.33581 18.5317 0.954148 18.9133 0.954148 19.613V29.727C0.954148 30.4267 1.35701 30.8084 2.03552 30.8084H5.8097C8.12086 30.8084 9.47787 29.4514 9.47787 27.0978C9.47787 24.8291 8.12086 23.5356 5.8097 23.5356ZM27.0978 6.55181H30.1299C31.5717 6.55181 32.2078 7.29393 32.2078 8.54493C32.2078 9.83833 31.5717 10.6016 30.1299 10.6016H27.0978V6.55181ZM26.6313 12.3827H30.3419C32.7379 12.3827 34.1585 10.9833 34.1585 8.50252C34.1585 6.17015 32.7379 4.85555 30.3419 4.85555H27.0978V1.86589H32.5258C33.1195 1.86589 33.5012 1.50543 33.5012 0.954148C33.5012 0.424066 33.1195 0.0636105 32.5258 0.0636105H26.6313C25.6984 0.0636105 25.1895 0.572487 25.1895 1.50543V10.9197C25.1895 11.8738 25.6984 12.3827 26.6313 12.3827ZM3.60456 6.82746L5.30082 1.99311C5.36443 1.82348 5.42804 1.75987 5.55526 1.75987C5.68248 1.75987 5.74609 1.82348 5.7885 1.99311L7.48476 6.82746H3.60456ZM11.0893 11.577C11.0893 11.4074 11.0681 11.2377 10.9621 10.9833L7.52717 1.63265C7.1243 0.487675 6.50941 0 5.55526 0C4.60112 0 3.98622 0.487675 3.58336 1.63265L0.127221 10.9833C0.0212046 11.2801 0 11.4498 0 11.577C0 12.0647 0.381661 12.4675 0.932947 12.4675C1.37822 12.4675 1.69626 12.2555 1.88709 11.7042L3.01087 8.52372H8.09966L9.22343 11.7042C9.39306 12.2343 9.73231 12.4463 10.1564 12.4463C10.7077 12.4675 11.0893 12.0647 11.0893 11.577Z" fill="#170030"/>
<path d="M105.423 60.5565C103.917 56.7399 100.164 54.6408 96.1143 55.3829L87.8026 56.8672C86.4244 57.1216 85.5127 58.4362 85.7459 59.8144C86.0003 61.1926 87.3149 62.1044 88.6932 61.8711L97.0049 60.3869C98.9768 60.0265 100.207 61.2138 100.694 62.4436C101.182 63.6734 101.097 65.3697 99.4008 66.4511L87.1877 74.3599C86.0639 75.102 84.6645 75.1444 83.4984 74.5083C82.311 73.8722 81.6113 72.6848 81.6113 71.3278V45.6718C81.6113 44.2724 80.4875 43.1274 79.0669 43.1274C77.6674 43.1274 76.5225 44.2724 76.5225 45.6718V71.2854C76.5225 74.5295 78.2187 77.3707 81.06 78.9186C82.3746 79.6395 83.7952 80 85.2158 80C86.8485 80 88.4811 79.5335 89.9442 78.5793L102.157 70.6705C105.613 68.4442 106.928 64.3731 105.423 60.5565ZM62.4859 55.3617L54.1742 56.846C52.796 57.1004 51.8843 58.415 52.1175 59.7932C52.3719 61.1714 53.6865 62.0832 55.0648 61.8499L63.3764 60.3657C65.3483 60.0053 66.5781 61.1926 67.0658 62.4224C67.5535 63.6522 67.4687 65.3485 65.7724 66.4299L53.5593 74.3387C52.4355 75.0808 51.0361 75.1232 49.8699 74.4871C48.6826 73.851 47.9829 72.6636 47.9829 71.3066V51.842C47.9829 48.5979 46.2866 45.7566 43.4453 44.2088C40.6041 42.661 37.2752 42.7882 34.5612 44.5481L3.88001 64.4367C0.423876 66.6843 -0.869525 70.7553 0.635908 74.5719C2.14134 78.3885 5.89433 80.4876 9.94415 79.7455L36.7451 74.9324C38.1233 74.6779 39.0351 73.3633 38.8018 71.9851C38.5474 70.6069 37.2328 69.6952 35.8546 69.9284L9.05362 74.7415C7.08171 75.102 5.85192 73.9146 5.36424 72.6848C4.87657 71.455 4.96138 69.7588 6.65764 68.6774L37.3388 48.7887C38.4626 48.0466 39.862 48.0042 41.0282 48.6403C42.2156 49.2764 42.9153 50.4638 42.9153 51.8208V71.2854C42.9153 74.5295 44.6115 77.3707 47.4528 78.9186C48.7674 79.6395 50.188 80 51.6086 80C53.2413 80 54.8739 79.5335 56.3157 78.5793L68.5288 70.6705C71.985 68.423 73.2784 64.3519 71.7729 60.5353C70.2887 56.7187 66.5357 54.6408 62.4859 55.3617Z" fill="#009C32"/>
</svg>
