<svg width="188" height="49" viewBox="0 0 188 49" fill="none" xmlns="http://www.w3.org/2000/svg">
<path d="M49.4118 48.6556H46.5547V40.2522H51.5127V41.0925H47.5631V43.7816H49.4118C51.0925 43.7816 52.1849 44.4539 52.1849 46.1346V46.2186C52.1849 47.8152 51.0925 48.6556 49.4118 48.6556ZM49.4118 47.8993C50.6723 47.8993 51.1765 47.311 51.1765 46.3026V46.2186C51.1765 45.2102 50.5883 44.6219 49.3278 44.6219H47.5631V47.8993H49.4118Z" fill="black"/>
<path d="M53.1094 46.9749C53.1094 45.5463 54.622 45.0421 56.2186 45.0421H57.143V44.6219C57.143 43.6135 56.8069 43.1934 55.7984 43.1934C54.9581 43.1934 54.4539 43.5295 54.3699 44.2858H53.3615C53.5295 42.8572 54.622 42.353 55.7984 42.353C56.9749 42.353 58.0674 42.8572 58.0674 44.5379V48.5715H57.059V47.8152C56.6388 48.4034 56.0505 48.7396 55.1262 48.7396C54.0337 48.7396 53.1094 48.2354 53.1094 46.9749ZM57.143 46.5547V45.7984H56.3026C55.0421 45.7984 54.2018 46.1345 54.2018 46.9749C54.2018 47.6471 54.5379 47.9833 55.3783 47.9833C56.3026 47.9833 57.143 47.4791 57.143 46.5547Z" fill="black"/>
<path d="M63.6977 45.9666H60.6725V48.7397H59.6641V42.6052H60.6725V45.2103H63.6977V42.6052H64.7061V48.7397H63.6977V45.9666Z" fill="black"/>
<path d="M67.3951 45.5462V48.6555H66.3867V42.521H67.3951V45.3781L69.9161 42.521H71.0926L68.4876 45.3781L71.3447 48.6555H70.1682L67.3951 45.5462Z" fill="black"/>
<path d="M18.2353 0C8.15126 0 0 8.15126 0 18.2353C0 28.3193 8.15126 36.4706 18.2353 36.4706C28.3193 36.4706 36.4706 28.3193 36.4706 18.2353C36.3866 8.15126 28.2353 0 18.2353 0ZM15.6303 25.9664L14.2857 29.916C9.2437 28.2353 5.88235 23.4454 5.88235 18.0672C5.88235 12.6891 9.2437 7.98319 14.3697 6.21849L15.7143 10.1681C12.3529 11.2605 10.1681 14.4538 10.1681 17.9832C10.084 21.7647 12.2689 24.874 15.6303 25.9664ZM21.8487 30.084L20.5882 26.0504C24.0336 24.958 26.3025 21.7647 26.3025 18.1513C26.3025 14.5378 24.0336 11.4286 20.6723 10.3361L22.0168 6.30252C27.1429 7.98319 30.5882 12.7731 30.5882 18.1513C30.5882 23.6134 27.0588 28.4034 21.8487 30.084Z" fill="#00BEF0"/>
<path d="M185.126 21.5127L187.143 23.9497C185.042 26.1346 182.437 26.7228 180.336 26.7228C178.319 26.7228 176.891 26.3867 175.63 25.7984C172.941 24.4539 171.596 21.7648 171.596 18.4875C171.596 13.5295 174.958 9.83203 179.916 9.83203C185.462 9.83203 188.151 13.9497 187.731 19.3278H175.126C175.21 20.6724 175.966 21.9329 177.059 22.6051C177.983 23.1934 179.075 23.4455 180.504 23.4455C182.101 23.4455 183.697 22.9413 185.126 21.5127ZM175.294 16.3867H184.201C183.949 14.4539 182.353 12.7732 179.832 12.7732C177.143 12.8572 175.546 14.6219 175.294 16.3867ZM90.588 26.3026H95.1258L87.9829 17.9833L95.0418 10.1682H90.588L85.2098 16.3867H83.6132V10.1682H80.1678V26.2186H83.6132V19.832H85.2098L90.588 26.3026ZM105.462 13.1093C102.521 13.1093 100.588 15.3783 100.588 18.2354C100.588 21.0925 102.521 23.3614 105.462 23.3614C108.403 23.3614 110.252 21.1766 110.252 18.2354C110.252 15.3783 108.487 13.1093 105.462 13.1093ZM106.05 9.83203C110.588 9.83203 113.949 13.3614 113.949 18.2354C113.949 23.0253 110.672 26.7228 106.05 26.7228C103.865 26.7228 102.101 25.9665 100.84 24.6219V33.0253H97.3107V10.1682H100.756V12.1009C102.101 10.5043 103.781 9.83203 106.05 9.83203ZM151.764 10.1682H137.395V13.3614H142.857V26.2186H146.386V13.4455H151.848V10.1682H151.764ZM77.7308 10.1682H63.3611V13.3614H68.8233V26.2186H72.3527V13.4455H77.8149V10.1682H77.7308ZM59.0754 18.2354C59.0754 15.2102 56.9745 13.0253 54.0333 13.0253C51.1762 13.0253 48.9913 15.2102 48.9913 18.2354C48.9913 21.2606 51.0922 23.4455 54.0333 23.4455C56.8905 23.4455 59.0754 21.2606 59.0754 18.2354ZM45.4619 18.2354C45.4619 13.4455 49.1594 9.83203 54.1174 9.83203C58.9913 9.83203 62.7728 13.4455 62.7728 18.2354C62.7728 23.0253 59.0754 26.7228 54.1174 26.7228C49.1594 26.7228 45.4619 23.0253 45.4619 18.2354ZM168.823 10.1682V26.2186H165.378V15.8825L156.975 26.2186H154.201V10.1682H157.647V20.5883L166.05 10.2522H168.823V10.1682ZM135.042 26.3026H131.596V10.1682H135.042V26.3026ZM126.05 20.7564C126.05 19.3278 125.042 18.3194 123.697 18.3194H120.168V23.2774H123.697C125.042 23.2774 126.05 22.269 126.05 20.7564ZM129.58 20.7564C129.58 23.9497 127.227 26.2186 123.865 26.2186H116.722V10.1682H120.168V15.3782H124.117C127.479 15.3782 129.58 17.5631 129.58 20.7564Z" fill="black"/>
</svg>
