<svg width="52" height="52" viewBox="0 0 52 52" fill="none" xmlns="http://www.w3.org/2000/svg">
<g clip-path="url(#clip0_184_886)">
<path d="M41.733 17.7568L40.1985 16.2229C39.6018 15.6263 39.2608 14.8168 39.2608 13.9667V11.7702C39.2608 8.23368 36.3836 5.3597 32.8458 5.3597H30.6507C29.7982 5.3597 28.9883 5.0167 28.3916 4.42018L26.8358 2.86708C24.3209 0.374454 20.2503 0.374454 17.7568 2.88625L16.2223 4.42018C15.6255 5.0167 14.8157 5.3597 13.9632 5.3597H11.768C8.2302 5.3597 5.35305 8.23368 5.35305 11.7702V13.9433C5.35305 14.8168 5.01206 15.6263 4.41532 16.2229L2.85953 17.7802C0.365996 20.292 0.387308 24.3633 2.88084 26.8538L4.41532 28.3664C5.01206 28.9843 5.35305 29.7938 5.35305 30.6481V32.8404C5.35305 36.3769 8.2302 39.2551 11.768 39.2551H13.9632C14.8157 39.2551 15.6255 39.5939 16.2223 40.1904L17.7781 41.7478C19.0355 42.9834 20.6765 43.5991 22.3176 43.5991C23.9586 43.5991 25.5997 42.9834 26.8571 41.7243L28.3916 40.1904C28.9883 39.5939 29.7982 39.2551 30.6507 39.2551H32.8458C36.3836 39.2551 39.2608 36.3769 39.2608 32.8404V30.6481C39.2608 29.7938 39.6018 28.9843 40.1985 28.3877L41.7117 26.8751C41.733 26.8538 41.7543 26.8346 41.7756 26.8112C42.9691 25.599 43.6298 23.9777 43.6085 22.2733C43.6085 20.569 42.9478 18.9498 41.733 17.7568Z" fill="url(#paint0_linear_184_886)"/>
<g opacity="0.5" filter="url(#filter0_f_184_886)">
<path d="M35.168 19.2918L34.1521 18.2763C33.757 17.8813 33.5312 17.3453 33.5312 16.7825V15.3282C33.5312 12.9867 31.6263 11.0839 29.2839 11.0839H27.8305C27.2661 11.0839 26.7299 10.8568 26.3348 10.4618L25.3047 9.43356C23.6397 7.78322 20.9446 7.78322 19.2937 9.44625L18.2777 10.4618C17.8826 10.8568 17.3464 11.0839 16.782 11.0839H15.3286C12.9862 11.0839 11.0813 12.9867 11.0813 15.3282V16.767C11.0813 17.3453 10.8556 17.8813 10.4605 18.2763L9.43039 19.3074C7.77945 20.9704 7.79356 23.6659 9.4445 25.3149L10.4605 26.3163C10.8556 26.7254 11.0813 27.2614 11.0813 27.827V29.2785C11.0813 31.62 12.9862 33.5256 15.3286 33.5256H16.782C17.3464 33.5256 17.8826 33.7499 18.2777 34.1449L19.3078 35.176C20.1403 35.9941 21.2268 36.4017 22.3133 36.4017C23.3998 36.4017 24.4863 35.9941 25.3189 35.1604L26.3348 34.1449C26.7299 33.7499 27.2661 33.5256 27.8305 33.5256H29.2839C31.6263 33.5256 33.5312 31.62 33.5312 29.2785V27.827C33.5312 27.2614 33.757 26.7254 34.1521 26.3305L35.1539 25.329C35.168 25.3149 35.1821 25.3022 35.1962 25.2866C35.9864 24.4841 36.4239 23.4106 36.4097 22.2822C36.4097 21.1538 35.9723 20.0817 35.168 19.2918Z" fill="#FC7A5C"/>
</g>
<g filter="url(#filter1_b_184_886)">
<mask id="path-3-outside-1_184_886" maskUnits="userSpaceOnUse" x="7.39062" y="7.39307" width="45" height="45" fill="black">
<rect fill="white" x="7.39062" y="7.39307" width="45" height="45"/>
<path d="M49.1236 25.1499L47.5892 23.6159C46.9924 23.0194 46.6514 22.2098 46.6514 21.3598V19.1633C46.6514 15.6267 43.7743 12.7528 40.2364 12.7528H38.0413C37.1888 12.7528 36.3789 12.4098 35.7822 11.8132L34.2264 10.2601C31.7116 7.76752 27.6409 7.76752 25.1474 10.2793L23.6129 11.8132C23.0162 12.4098 22.2063 12.7528 21.3538 12.7528H19.1587C15.6208 12.7528 12.7437 15.6267 12.7437 19.1633V21.3364C12.7437 22.2098 12.4027 23.0194 11.8059 23.6159L10.2502 25.1733C7.75662 27.6851 7.77793 31.7564 10.2715 34.2469L11.8059 35.7595C12.4027 36.3773 12.7437 37.1869 12.7437 38.0412V40.2334C12.7437 43.77 15.6208 46.6482 19.1587 46.6482H21.3538C22.2063 46.6482 23.0162 46.987 23.6129 47.5835L25.1687 49.1408C26.4261 50.3765 28.0672 50.9922 29.7082 50.9922C31.3492 50.9922 32.9903 50.3765 34.2477 49.1174L35.7822 47.5835C36.3789 46.987 37.1888 46.6482 38.0413 46.6482H40.2364C43.7743 46.6482 46.6514 43.77 46.6514 40.2334V38.0412C46.6514 37.1869 46.9924 36.3773 47.5892 35.7808L49.1023 34.2682C49.1236 34.2469 49.1449 34.2277 49.1663 34.2043C50.3597 32.992 51.0204 31.3708 50.9991 29.6664C50.9991 27.962 50.3384 26.3429 49.1236 25.1499Z"/>
</mask>
<path d="M49.1236 25.1499L47.5892 23.6159C46.9924 23.0194 46.6514 22.2098 46.6514 21.3598V19.1633C46.6514 15.6267 43.7743 12.7528 40.2364 12.7528H38.0413C37.1888 12.7528 36.3789 12.4098 35.7822 11.8132L34.2264 10.2601C31.7116 7.76752 27.6409 7.76752 25.1474 10.2793L23.6129 11.8132C23.0162 12.4098 22.2063 12.7528 21.3538 12.7528H19.1587C15.6208 12.7528 12.7437 15.6267 12.7437 19.1633V21.3364C12.7437 22.2098 12.4027 23.0194 11.8059 23.6159L10.2502 25.1733C7.75662 27.6851 7.77793 31.7564 10.2715 34.2469L11.8059 35.7595C12.4027 36.3773 12.7437 37.1869 12.7437 38.0412V40.2334C12.7437 43.77 15.6208 46.6482 19.1587 46.6482H21.3538C22.2063 46.6482 23.0162 46.987 23.6129 47.5835L25.1687 49.1408C26.4261 50.3765 28.0672 50.9922 29.7082 50.9922C31.3492 50.9922 32.9903 50.3765 34.2477 49.1174L35.7822 47.5835C36.3789 46.987 37.1888 46.6482 38.0413 46.6482H40.2364C43.7743 46.6482 46.6514 43.77 46.6514 40.2334V38.0412C46.6514 37.1869 46.9924 36.3773 47.5892 35.7808L49.1023 34.2682C49.1236 34.2469 49.1449 34.2277 49.1663 34.2043C50.3597 32.992 51.0204 31.3708 50.9991 29.6664C50.9991 27.962 50.3384 26.3429 49.1236 25.1499Z" fill="#FFCBB9" fill-opacity="0.35"/>
<path d="M47.5892 23.6159L48.2961 22.9087V22.9087L47.5892 23.6159ZM35.7822 11.8132L36.4892 11.106L36.4887 11.1055L35.7822 11.8132ZM34.2264 10.2601L34.9329 9.55242L34.9304 9.54991L34.2264 10.2601ZM25.1474 10.2793L25.8544 10.9866L25.8571 10.9838L25.1474 10.2793ZM23.6129 11.8132L24.3199 12.5205L23.6129 11.8132ZM11.8059 23.6159L11.099 22.9087L11.0985 22.9092L11.8059 23.6159ZM10.2502 25.1733L9.54268 24.4665L9.54047 24.4688L10.2502 25.1733ZM10.2715 34.2469L9.56477 34.9544L9.56945 34.959L10.2715 34.2469ZM11.8059 35.7595L12.5252 35.0648C12.5195 35.0589 12.5138 35.0531 12.508 35.0473L11.8059 35.7595ZM23.6129 47.5835L24.3204 46.8767L24.3199 46.8762L23.6129 47.5835ZM25.1687 49.1408L24.4612 49.8476L24.4678 49.8541L25.1687 49.1408ZM34.2477 49.1174L33.5407 48.4102L33.5401 48.4108L34.2477 49.1174ZM35.7822 47.5835L36.4892 48.2907L35.7822 47.5835ZM47.5892 35.7808L48.2961 36.488L47.5892 35.7808ZM49.1023 34.2682L48.3953 33.5609V33.5609L49.1023 34.2682ZM49.1663 34.2043L48.4537 33.5027C48.4444 33.5121 48.4353 33.5217 48.4264 33.5315L49.1663 34.2043ZM50.9991 29.6664H49.999L49.9992 29.6789L50.9991 29.6664ZM49.8306 24.4426L48.2961 22.9087L46.8822 24.3232L48.4167 25.8571L49.8306 24.4426ZM48.2961 22.9087C47.8846 22.4973 47.6514 21.9411 47.6514 21.3598H45.6514C45.6514 22.4785 46.1003 23.5415 46.8822 24.3232L48.2961 22.9087ZM47.6514 21.3598V19.1633H45.6514V21.3598H47.6514ZM47.6514 19.1633C47.6514 15.0737 44.3258 11.7528 40.2364 11.7528V13.7528C43.2228 13.7528 45.6514 16.1798 45.6514 19.1633H47.6514ZM40.2364 11.7528H38.0413V13.7528H40.2364V11.7528ZM38.0413 11.7528C37.4586 11.7528 36.9017 11.5184 36.4892 11.106L35.0752 12.5205C35.8562 13.3011 36.919 13.7528 38.0413 13.7528V11.7528ZM36.4887 11.1055L34.9329 9.55243L33.5199 10.9679L35.0757 12.521L36.4887 11.1055ZM34.9304 9.54991C32.0269 6.67215 27.3235 6.66782 24.4377 9.5748L25.8571 10.9838C27.9583 8.86722 31.3962 8.86289 33.5224 10.9704L34.9304 9.54991ZM24.4404 9.57208L22.9059 11.106L24.3199 12.5205L25.8544 10.9866L24.4404 9.57208ZM22.9059 11.106C22.4934 11.5184 21.9365 11.7528 21.3538 11.7528V13.7528C22.4761 13.7528 23.5389 13.3011 24.3199 12.5205L22.9059 11.106ZM21.3538 11.7528H19.1587V13.7528H21.3538V11.7528ZM19.1587 11.7528C15.0693 11.7528 11.7437 15.0737 11.7437 19.1633H13.7437C13.7437 16.1798 16.1723 13.7528 19.1587 13.7528V11.7528ZM11.7437 19.1633V21.3364H13.7437V19.1633H11.7437ZM11.7437 21.3364C11.7437 21.945 11.5078 22.5 11.099 22.9087L12.5129 24.3232C13.2976 23.5388 13.7437 22.4747 13.7437 21.3364H11.7437ZM11.0985 22.9092L9.54269 24.4665L10.9576 25.88L12.5134 24.3227L11.0985 22.9092ZM9.54047 24.4688C6.6572 27.3732 6.68282 32.0759 9.56479 34.9544L10.9781 33.5393C8.87305 31.4368 8.85604 27.997 10.9598 25.8778L9.54047 24.4688ZM9.56945 34.959L11.1039 36.4717L12.508 35.0473L10.9735 33.5347L9.56945 34.959ZM11.0867 36.4542C11.5116 36.8942 11.7437 37.4578 11.7437 38.0412H13.7437C13.7437 36.916 13.2938 35.8605 12.5252 35.0648L11.0867 36.4542ZM11.7437 38.0412V40.2334H13.7437V38.0412H11.7437ZM11.7437 40.2334C11.7437 44.3222 15.0685 47.6482 19.1587 47.6482V45.6482C16.1732 45.6482 13.7437 43.2178 13.7437 40.2334H11.7437ZM19.1587 47.6482H21.3538V45.6482H19.1587V47.6482ZM21.3538 47.6482C21.9399 47.6482 22.4958 47.8808 22.9059 48.2907L24.3199 46.8762C23.5365 46.0932 22.4727 45.6482 21.3538 45.6482V47.6482ZM22.9054 48.2902L24.4612 49.8476L25.8762 48.4341L24.3204 46.8767L22.9054 48.2902ZM24.4678 49.8541C25.9209 51.2821 27.8174 51.9922 29.7082 51.9922V49.9922C28.3169 49.9922 26.9313 49.4709 25.8696 48.4276L24.4678 49.8541ZM29.7082 51.9922C31.6001 51.9922 33.5002 51.281 34.9553 49.824L33.5401 48.4108C32.4803 49.472 31.0984 49.9922 29.7082 49.9922V51.9922ZM34.9547 49.8246L36.4892 48.2907L35.0752 46.8762L33.5407 48.4102L34.9547 49.8246ZM36.4892 48.2907C36.8993 47.8808 37.4552 47.6482 38.0413 47.6482V45.6482C36.9224 45.6482 35.8586 46.0932 35.0752 46.8762L36.4892 48.2907ZM38.0413 47.6482H40.2364V45.6482H38.0413V47.6482ZM40.2364 47.6482C44.3266 47.6482 47.6514 44.3222 47.6514 40.2334H45.6514C45.6514 43.2178 43.2219 45.6482 40.2364 45.6482V47.6482ZM47.6514 40.2334V38.0412H45.6514V40.2334H47.6514ZM47.6514 38.0412C47.6514 37.4549 47.8851 36.8989 48.2961 36.488L46.8822 35.0736C46.0997 35.8557 45.6514 36.9189 45.6514 38.0412H47.6514ZM48.2961 36.488L49.8093 34.9754L48.3953 33.5609L46.8822 35.0736L48.2961 36.488ZM49.8093 34.9754C49.809 34.9757 49.8099 34.9748 49.8139 34.9709C49.816 34.9689 49.8256 34.9597 49.8322 34.9532C49.8484 34.9374 49.8756 34.9106 49.9061 34.8771L48.4264 33.5315C48.4357 33.5213 48.4415 33.5159 48.4363 33.5209C48.4351 33.5221 48.4336 33.5235 48.4312 33.5258C48.4294 33.5276 48.4257 33.5312 48.4227 33.5341C48.4161 33.5405 48.4063 33.55 48.3953 33.5609L49.8093 34.9754ZM49.8789 34.9058C51.2574 33.5057 52.0237 31.6282 51.999 29.6539L49.9992 29.6789C50.0171 31.1134 49.4621 32.4784 48.4537 33.5027L49.8789 34.9058ZM51.9991 29.6664C51.9991 27.7013 51.236 25.8228 49.8243 24.4364L48.4229 25.8633C49.4409 26.863 49.9991 28.2227 49.9991 29.6664H51.9991Z" fill="url(#paint1_linear_184_886)" mask="url(#path-3-outside-1_184_886)"/>
</g>
<g filter="url(#filter2_bd_184_886)">
<mask id="path-5-inside-2_184_886" fill="white">
<path fill-rule="evenodd" clip-rule="evenodd" d="M25.5301 36.4836C25.1891 36.8458 24.7202 37.0375 24.2087 37.0375C23.7186 37.0375 23.2497 36.8458 22.9087 36.4836C22.1841 35.7593 22.1841 34.5662 22.9087 33.8419L33.8632 22.8914C34.5878 22.1691 35.76 22.1691 36.4846 22.8914C37.2092 23.6157 37.2092 24.8109 36.4846 25.5352L25.5301 36.4836ZM35.1841 37.0376C34.1398 37.0376 33.3086 36.2067 33.3086 35.1628C33.3086 34.1423 34.1398 33.3093 35.1841 33.3093C36.2071 33.3093 37.0382 34.1423 37.0382 35.1628C37.0382 36.2067 36.2071 37.0376 35.1841 37.0376ZM26.0851 24.2123C26.0851 23.1897 25.2539 22.3589 24.2309 22.3589C23.208 22.3589 22.3555 23.1897 22.3555 24.2123C22.3555 25.2584 23.208 26.0871 24.2309 26.0871C25.2539 26.0871 26.0851 25.2584 26.0851 24.2123Z"/>
</mask>
<path fill-rule="evenodd" clip-rule="evenodd" d="M25.5301 36.4836C25.1891 36.8458 24.7202 37.0375 24.2087 37.0375C23.7186 37.0375 23.2497 36.8458 22.9087 36.4836C22.1841 35.7593 22.1841 34.5662 22.9087 33.8419L33.8632 22.8914C34.5878 22.1691 35.76 22.1691 36.4846 22.8914C37.2092 23.6157 37.2092 24.8109 36.4846 25.5352L25.5301 36.4836ZM35.1841 37.0376C34.1398 37.0376 33.3086 36.2067 33.3086 35.1628C33.3086 34.1423 34.1398 33.3093 35.1841 33.3093C36.2071 33.3093 37.0382 34.1423 37.0382 35.1628C37.0382 36.2067 36.2071 37.0376 35.1841 37.0376ZM26.0851 24.2123C26.0851 23.1897 25.2539 22.3589 24.2309 22.3589C23.208 22.3589 22.3555 23.1897 22.3555 24.2123C22.3555 25.2584 23.208 26.0871 24.2309 26.0871C25.2539 26.0871 26.0851 25.2584 26.0851 24.2123Z" fill="url(#paint2_linear_184_886)"/>
<path d="M25.5301 36.4836L25.2472 36.2006L25.2389 36.2094L25.5301 36.4836ZM22.9087 36.4836L23.2001 36.2093L23.1915 36.2007L22.9087 36.4836ZM22.9087 33.8419L22.6259 33.559L22.9087 33.8419ZM33.8632 22.8914L33.5808 22.608L33.5804 22.6085L33.8632 22.8914ZM36.4846 22.8914L36.7674 22.6085L36.767 22.608L36.4846 22.8914ZM36.4846 25.5352L36.7673 25.8182L36.7674 25.8181L36.4846 25.5352ZM24.2087 37.4375C24.8228 37.4375 25.3996 37.2057 25.8213 36.7578L25.2389 36.2094C24.9786 36.4859 24.6177 36.6375 24.2087 36.6375V37.4375ZM22.6175 36.7578C23.0375 37.204 23.6135 37.4375 24.2087 37.4375V36.6375C23.8236 36.6375 23.4619 36.4876 23.1999 36.2094L22.6175 36.7578ZM22.6259 33.559C21.745 34.4395 21.745 35.8859 22.6259 36.7665L23.1915 36.2007C22.6232 35.6326 22.6232 34.6929 23.1915 34.1248L22.6259 33.559ZM33.5804 22.6085L22.6259 33.559L23.1915 34.1248L34.146 23.1742L33.5804 22.6085ZM36.767 22.608C35.8862 21.7302 34.4615 21.7302 33.5808 22.608L34.1456 23.1747C34.7141 22.608 35.6337 22.608 36.2022 23.1747L36.767 22.608ZM36.7674 25.8181C37.6483 24.9376 37.6483 23.489 36.7674 22.6085L36.2018 23.1742C36.7701 23.7424 36.7701 24.6842 36.2018 25.2523L36.7674 25.8181ZM25.8129 36.7665L36.7673 25.8182L36.2018 25.2523L25.2473 36.2007L25.8129 36.7665ZM32.9086 35.1628C32.9086 36.4277 33.919 37.4376 35.1841 37.4376V36.6376C34.3605 36.6376 33.7086 35.9856 33.7086 35.1628H32.9086ZM35.1841 32.9093C33.9217 32.9093 32.9086 33.9186 32.9086 35.1628H33.7086C33.7086 34.366 34.3579 33.7093 35.1841 33.7093V32.9093ZM37.4382 35.1628C37.4382 33.9215 36.4281 32.9093 35.1841 32.9093V33.7093C35.986 33.7093 36.6382 34.363 36.6382 35.1628H37.4382ZM35.1841 37.4376C36.4308 37.4376 37.4382 36.4248 37.4382 35.1628H36.6382C36.6382 35.9886 35.9833 36.6376 35.1841 36.6376V37.4376ZM24.2309 22.7589C25.0331 22.7589 25.6851 23.4108 25.6851 24.2123H26.4851C26.4851 22.9687 25.4747 21.9589 24.2309 21.9589V22.7589ZM22.7555 24.2123C22.7555 23.4167 23.4228 22.7589 24.2309 22.7589V21.9589C22.9931 21.9589 21.9555 22.9628 21.9555 24.2123H22.7555ZM24.2309 25.6871C23.4255 25.6871 22.7555 25.0341 22.7555 24.2123H21.9555C21.9555 25.4827 22.9904 26.4871 24.2309 26.4871V25.6871ZM25.6851 24.2123C25.6851 25.04 25.0305 25.6871 24.2309 25.6871V26.4871C25.4774 26.4871 26.4851 25.4768 26.4851 24.2123H25.6851Z" fill="url(#paint3_linear_184_886)" mask="url(#path-5-inside-2_184_886)"/>
</g>
</g>
<defs>
<filter id="filter0_f_184_886" x="-14.8008" y="-14.8026" width="74.2109" height="74.2043" filterUnits="userSpaceOnUse" color-interpolation-filters="sRGB">
<feFlood flood-opacity="0" result="BackgroundImageFix"/>
<feBlend mode="normal" in="SourceGraphic" in2="BackgroundImageFix" result="shape"/>
<feGaussianBlur stdDeviation="11.5" result="effect1_foregroundBlur_184_886"/>
</filter>
<filter id="filter1_b_184_886" x="-16.6094" y="-16.6069" width="92.6094" height="92.5991" filterUnits="userSpaceOnUse" color-interpolation-filters="sRGB">
<feFlood flood-opacity="0" result="BackgroundImageFix"/>
<feGaussianBlur in="BackgroundImage" stdDeviation="12"/>
<feComposite in2="SourceAlpha" operator="in" result="effect1_backgroundBlur_184_886"/>
<feBlend mode="normal" in="SourceGraphic" in2="effect1_backgroundBlur_184_886" result="shape"/>
</filter>
<filter id="filter2_bd_184_886" x="7.35547" y="7.34969" width="44.6826" height="44.6879" filterUnits="userSpaceOnUse" color-interpolation-filters="sRGB">
<feFlood flood-opacity="0" result="BackgroundImageFix"/>
<feGaussianBlur in="BackgroundImage" stdDeviation="7.5"/>
<feComposite in2="SourceAlpha" operator="in" result="effect1_backgroundBlur_184_886"/>
<feColorMatrix in="SourceAlpha" type="matrix" values="0 0 0 0 0 0 0 0 0 0 0 0 0 0 0 0 0 0 127 0" result="hardAlpha"/>
<feOffset dx="5" dy="5"/>
<feGaussianBlur stdDeviation="5"/>
<feColorMatrix type="matrix" values="0 0 0 0 1 0 0 0 0 0.580392 0 0 0 0 0.247059 0 0 0 0.5 0"/>
<feBlend mode="normal" in2="effect1_backgroundBlur_184_886" result="effect2_dropShadow_184_886"/>
<feBlend mode="normal" in="SourceGraphic" in2="effect2_dropShadow_184_886" result="shape"/>
</filter>
<linearGradient id="paint0_linear_184_886" x1="22.3045" y1="1" x2="22.3045" y2="43.5991" gradientUnits="userSpaceOnUse">
<stop stop-color="#FC7A5C"/>
<stop offset="1" stop-color="#F5481F"/>
</linearGradient>
<linearGradient id="paint1_linear_184_886" x1="8.26632" y1="8.10339" x2="42.3158" y2="47.0407" gradientUnits="userSpaceOnUse">
<stop stop-color="white" stop-opacity="0.4"/>
<stop offset="1" stop-color="white" stop-opacity="0"/>
</linearGradient>
<linearGradient id="paint2_linear_184_886" x1="35.9972" y1="25.002" x2="19.642" y2="25.5351" gradientUnits="userSpaceOnUse">
<stop stop-color="white"/>
<stop offset="1" stop-color="white" stop-opacity="0.2"/>
</linearGradient>
<linearGradient id="paint3_linear_184_886" x1="24.6927" y1="24.0608" x2="34.0627" y2="35.6618" gradientUnits="userSpaceOnUse">
<stop stop-color="white" stop-opacity="0.25"/>
<stop offset="1" stop-color="white" stop-opacity="0"/>
</linearGradient>
<clipPath id="clip0_184_886">
<rect width="52" height="52" fill="white"/>
</clipPath>
</defs>
</svg>
