<svg width="150" height="80" viewBox="0 0 150 80" fill="none" xmlns="http://www.w3.org/2000/svg">
<path d="M53.2094 51.8389H51.8096V47.7217H54.2387V48.1334H52.3036V49.4509H53.2094C54.0329 49.4509 54.5681 49.7803 54.5681 50.6037V50.6449C54.5681 51.4272 54.0329 51.8389 53.2094 51.8389ZM53.2094 51.4684C53.827 51.4684 54.074 51.1802 54.074 50.6861V50.6449C54.074 50.1508 53.7858 49.8626 53.1683 49.8626H52.3036V51.4684H53.2094Z" fill="black"/>
<path d="M55.0215 51.0155C55.0215 50.3155 55.7626 50.0685 56.5449 50.0685H56.9978V49.8626C56.9978 49.3686 56.8331 49.1627 56.339 49.1627C55.9273 49.1627 55.6802 49.3274 55.6391 49.6979H55.145C55.2273 48.998 55.7626 48.751 56.339 48.751C56.9154 48.751 57.4507 48.998 57.4507 49.8215V51.7977H56.9566V51.4272C56.7507 51.7154 56.4625 51.8801 56.0096 51.8801C55.4744 51.8801 55.0215 51.633 55.0215 51.0155ZM56.9978 50.8096V50.439H56.586C55.9684 50.439 55.5567 50.6037 55.5567 51.0155C55.5567 51.3448 55.7214 51.5095 56.1331 51.5095C56.586 51.5095 56.9978 51.2625 56.9978 50.8096Z" fill="black"/>
<path d="M60.2087 50.5214H58.7265V51.8801H58.2324V48.8745H58.7265V50.1509H60.2087V48.8745H60.7028V51.8801H60.2087V50.5214Z" fill="black"/>
<path d="M62.0204 50.3155V51.8388H61.5264V48.8333H62.0204V50.2331L63.2556 48.8333H63.832L62.5557 50.2331L63.9555 51.8388H63.3791L62.0204 50.3155Z" fill="black"/>
<path d="M37.9344 28C32.9937 28 29 31.9937 29 36.9344C29 41.8751 32.9937 45.8688 37.9344 45.8688C42.8751 45.8688 46.8688 41.8751 46.8688 36.9344C46.8276 31.9937 42.8339 28 37.9344 28ZM36.6581 40.7223L35.9993 42.6574C33.529 41.8339 31.8821 39.4871 31.8821 36.8521C31.8821 34.217 33.529 31.9114 36.0405 31.0468L36.6992 32.9819C35.0523 33.5171 33.9819 35.0816 33.9819 36.8109C33.9407 38.6636 35.0112 40.187 36.6581 40.7223ZM39.7048 42.7397L39.0872 40.7634C40.7753 40.2282 41.887 38.6636 41.887 36.8932C41.887 35.1228 40.7753 33.5994 39.1284 33.0642L39.7872 31.0879C42.2987 31.9114 43.9867 34.2582 43.9867 36.8932C43.9867 39.5694 42.2575 41.9163 39.7048 42.7397Z" fill="#00BEF0"/>
<path d="M119.703 38.5401L120.691 39.7341C119.662 40.8046 118.385 41.0928 117.356 41.0928C116.368 41.0928 115.668 40.9281 115.05 40.6399C113.733 39.9811 113.074 38.6636 113.074 37.0579C113.074 34.6287 114.721 32.8171 117.15 32.8171C119.868 32.8171 121.185 34.8346 120.979 37.4696H114.803C114.845 38.1284 115.215 38.746 115.75 39.0753C116.203 39.3635 116.739 39.4871 117.438 39.4871C118.221 39.4871 119.003 39.24 119.703 38.5401ZM114.886 36.0286H119.25C119.127 35.0816 118.344 34.2582 117.109 34.2582C115.792 34.2993 115.009 35.164 114.886 36.0286ZM73.384 40.8869H75.6073L72.1076 36.8109L75.5661 32.9818H73.384L70.749 36.0286H69.9667V32.9818H68.2786V40.8458H69.9667V37.7167H70.749L73.384 40.8869ZM80.6715 34.4229C79.2305 34.4229 78.2835 35.5345 78.2835 36.9344C78.2835 38.3342 79.2305 39.4459 80.6715 39.4459C82.1125 39.4459 83.0183 38.3754 83.0183 36.9344C83.0183 35.5345 82.1537 34.4229 80.6715 34.4229ZM80.9597 32.8171C83.183 32.8171 84.8299 34.5464 84.8299 36.9344C84.8299 39.2812 83.2242 41.0928 80.9597 41.0928C79.8892 41.0928 79.0246 40.7222 78.407 40.0635V44.1807H76.6778V32.9818H78.3658V33.9288C79.0246 33.1465 79.848 32.8171 80.9597 32.8171ZM103.357 32.9818H96.317V34.5464H98.9932V40.8458H100.722V34.5876H103.399V32.9818H103.357ZM67.0846 32.9818H60.0441V34.5464H62.7203V40.8458H64.4496V34.5876H67.1258V32.9818H67.0846ZM57.9443 36.9344C57.9443 35.4522 56.915 34.3817 55.474 34.3817C54.0741 34.3817 53.0037 35.4522 53.0037 36.9344C53.0037 38.4166 54.033 39.4871 55.474 39.4871C56.8739 39.4871 57.9443 38.4166 57.9443 36.9344ZM51.2744 36.9344C51.2744 34.5876 53.086 32.8171 55.5152 32.8171C57.9032 32.8171 59.7559 34.5876 59.7559 36.9344C59.7559 39.2812 57.9443 41.0928 55.5152 41.0928C53.086 41.0928 51.2744 39.2812 51.2744 36.9344ZM111.715 32.9818V40.8458H110.027V35.7816L105.91 40.8458H104.551V32.9818H106.24V38.0872L110.357 33.023H111.715V32.9818ZM95.1642 40.8869H93.4761V32.9818H95.1642V40.8869ZM90.7587 38.1695C90.7587 37.4696 90.2647 36.9755 89.6059 36.9755H87.8767V39.4047H89.6059C90.2647 39.4047 90.7587 38.9107 90.7587 38.1695ZM92.488 38.1695C92.488 39.7341 91.3351 40.8458 89.6882 40.8458H86.1886V32.9818H87.8767V35.5345H89.8118C91.4587 35.5345 92.488 36.605 92.488 38.1695Z" fill="black"/>
</svg>
