<svg width="150" height="80" viewBox="0 0 150 80" fill="none" xmlns="http://www.w3.org/2000/svg">
<path d="M24.2549 31.694C24.2549 29.2301 26.2515 27.2546 28.6943 27.2546H44.3277C46.7917 27.2546 48.7671 29.2513 48.7671 31.694V47.3275C48.7671 49.7914 46.7704 51.7669 44.3277 51.7669H28.6943C26.2303 51.7669 24.2549 49.7702 24.2549 47.3275V31.694Z" fill="#072DA0"/>
<path d="M44.349 52.022H28.6943C26.1029 52.022 24 49.9191 24 47.3277V31.6943C24 29.1029 26.1029 27 28.6943 27H44.3277C46.9191 27 49.022 29.1029 49.022 31.6943V47.3277C49.022 49.9191 46.9191 52.022 44.349 52.022ZM28.6943 27.5098C26.379 27.5098 24.5098 29.4002 24.5098 31.6943V47.3277C24.5098 49.643 26.4002 51.5122 28.6943 51.5122H44.3277C46.643 51.5122 48.5122 49.6218 48.5122 47.3277V31.6943C48.5122 29.379 46.6218 27.5098 44.3277 27.5098H28.6943Z" fill="#F8FAFF"/>
<path d="M30.2656 33.2661H32.7721V35.7726H35.2785V38.279H37.785V40.7855H35.2785V43.2919H32.7721V45.7984H30.2656V40.7855H32.7721V38.279H30.2656V33.2661Z" fill="white"/>
<path d="M37.7637 43.2706V40.7642H40.2701V43.2706H37.7637Z" fill="white"/>
<path d="M40.2695 43.2708H42.776V45.7772H40.2695V43.2708Z" fill="white"/>
<path d="M37.7643 43.2708H35.2578V45.7772H37.7643V43.2708Z" fill="white"/>
<path d="M40.2707 40.7642V38.2578H37.7643V35.7513H35.2578V33.2661H40.2707V35.7726H42.7772V40.7855H40.2707V40.7642Z" fill="white"/>
<path d="M62.1277 43.2283L62.1065 38.7465L59.8974 42.4424H59.1327L56.9237 38.8314V43.2283H55.2881V35.7302H56.7325L59.5363 40.382L62.2977 35.7302H63.7421L63.7633 43.2283H62.1277Z" fill="#072DA0"/>
<path d="M68.0966 43.3132C67.4806 43.3132 66.9495 43.1858 66.461 42.9309C65.9725 42.676 65.6114 42.3149 65.3352 41.8688C65.0591 41.4228 64.9316 40.913 64.9316 40.3395C64.9316 39.766 65.0591 39.2562 65.3352 38.8101C65.6114 38.3641 65.9937 38.003 66.461 37.7693C66.9495 37.5144 67.5018 37.387 68.0966 37.387C68.7126 37.387 69.2436 37.5144 69.7321 37.7693C70.2207 38.0242 70.5818 38.3641 70.8579 38.8101C71.134 39.2562 71.2615 39.766 71.2615 40.3395C71.2615 40.913 71.134 41.4228 70.8579 41.8688C70.5818 42.3149 70.1994 42.676 69.7321 42.9309C69.2436 43.207 68.7126 43.3132 68.0966 43.3132ZM68.0966 41.9538C68.5214 41.9538 68.8825 41.8051 69.1586 41.529C69.4348 41.2316 69.5834 40.8493 69.5834 40.3607C69.5834 39.8722 69.4348 39.4898 69.1586 39.2137C68.8825 38.9163 68.5426 38.7676 68.0966 38.7676C67.6717 38.7676 67.3106 38.9163 67.0345 39.2137C66.7584 39.4898 66.6097 39.8934 66.6097 40.3607C66.6097 40.8493 66.7584 41.2316 67.0345 41.529C67.3106 41.8051 67.6717 41.9538 68.0966 41.9538Z" fill="#072DA0"/>
<path d="M78.7166 41.8688V44.4815H77.166V43.2495H73.0877V44.4815H71.5371V41.8688H71.7708C72.1319 41.8688 72.3655 41.6564 72.5142 41.2316C72.6416 40.828 72.7266 40.2333 72.7691 39.4686L72.8541 37.4719H77.8882V41.8688H78.7166ZM74.2772 39.596C74.256 40.1908 74.2135 40.6581 74.1285 41.0404C74.0648 41.4015 73.9374 41.6989 73.7462 41.8901H76.1889V38.8738H74.2985L74.2772 39.596Z" fill="#072DA0"/>
<path d="M85.4505 37.4719L82.8378 43.5894C82.5829 44.2478 82.2431 44.7151 81.8395 44.9913C81.4571 45.2674 80.9898 45.3949 80.4376 45.3949C80.1402 45.3949 79.8428 45.3524 79.5454 45.2462C79.2481 45.1612 79.0144 45.0338 78.8232 44.8638L79.4392 43.6743C79.5667 43.7805 79.7154 43.8867 79.8853 43.9505C80.0552 44.0142 80.2252 44.0567 80.3951 44.0567C80.6287 44.0567 80.8199 43.9929 80.9474 43.8867C81.096 43.7805 81.2235 43.5894 81.3297 43.3345L81.3509 43.2707L78.8445 37.4719H80.565L82.1793 41.3803L83.8149 37.4719H85.4505Z" fill="#072DA0"/>
<path d="M91.2708 37.4722V43.2285H89.5927V38.8316H87.766L87.7023 39.8512C87.681 40.6159 87.5961 41.2318 87.4898 41.7416C87.3836 42.2514 87.1925 42.6338 86.9376 42.9099C86.6827 43.186 86.3216 43.3347 85.8543 43.3347C85.6206 43.3347 85.3233 43.2922 84.9834 43.2073L85.0684 41.8266C85.1746 41.8478 85.2595 41.8478 85.3233 41.8478C85.5782 41.8478 85.7693 41.7629 85.8755 41.5717C86.003 41.3805 86.0879 41.1469 86.1304 40.8707C86.1729 40.5946 86.2154 40.2123 86.2366 39.745L86.3216 37.4297H91.2708V37.4722Z" fill="#072DA0"/>
<path d="M95.9015 39.3199C96.6449 39.3199 97.2397 39.4898 97.622 39.8297C98.0256 40.1483 98.2168 40.6156 98.2168 41.2316C98.2168 41.8688 97.9831 42.3574 97.5371 42.7185C97.091 43.0583 96.475 43.2495 95.6678 43.2495L92.7578 43.2283V37.4719H94.4146V39.3199H95.9015ZM95.5404 42.06C95.859 42.06 96.1139 41.9963 96.2838 41.8476C96.4538 41.6989 96.5387 41.4865 96.5387 41.2104C96.5387 40.9342 96.4538 40.7218 96.2838 40.5944C96.1139 40.4669 95.8803 40.4032 95.5404 40.382L94.4571 40.3607V42.0388H95.5404V42.06Z" fill="#072DA0"/>
<path d="M102.508 37.8756C103.06 37.8756 103.549 37.9818 103.952 38.2155C104.377 38.4279 104.696 38.7465 104.908 39.1501C105.142 39.5537 105.248 40.021 105.248 40.5732C105.248 41.1255 105.121 41.614 104.844 42.0389C104.59 42.4637 104.207 42.7823 103.719 43.016C103.23 43.2496 102.699 43.3558 102.083 43.3558C101.064 43.3558 100.278 43.0372 99.7041 42.4C99.1306 41.7415 98.8545 40.8069 98.8545 39.5537C98.8545 38.4066 99.1094 37.472 99.5979 36.7923C100.108 36.0914 100.894 35.6453 101.934 35.4329L104.675 34.8806L104.908 36.325L102.487 36.8136C101.828 36.941 101.34 37.1534 101.021 37.4508C100.702 37.7482 100.511 38.173 100.469 38.7253C100.724 38.4491 101.021 38.2367 101.361 38.1093C101.722 37.9393 102.104 37.8756 102.508 37.8756ZM102.126 42.0601C102.55 42.0601 102.89 41.9114 103.166 41.6353C103.421 41.3592 103.57 40.9981 103.57 40.5732C103.57 40.1484 103.443 39.7873 103.166 39.5324C102.912 39.2775 102.572 39.1501 102.126 39.1501C101.68 39.1501 101.34 39.2775 101.064 39.5324C100.809 39.7873 100.66 40.1272 100.66 40.5732C100.66 40.9981 100.787 41.3592 101.064 41.6353C101.34 41.9327 101.701 42.0601 102.126 42.0601Z" fill="#072DA0"/>
<path d="M108.454 37.387C109.346 37.387 110.026 37.5994 110.515 38.0242C111.003 38.449 111.237 39.0863 111.237 39.9359V43.2283H109.665V42.5273C109.346 43.0583 108.773 43.3345 107.902 43.3345C107.456 43.3345 107.074 43.2495 106.734 43.1008C106.415 42.9521 106.16 42.7397 105.99 42.4848C105.82 42.2299 105.735 41.9113 105.735 41.5927C105.735 41.0617 105.927 40.6369 106.33 40.3395C106.734 40.0421 107.371 39.8722 108.199 39.8722H109.538C109.538 39.5111 109.431 39.2349 109.198 39.0438C108.985 38.8526 108.645 38.7464 108.199 38.7464C107.902 38.7464 107.583 38.7889 107.286 38.8951C106.989 38.98 106.734 39.1075 106.543 39.2774L105.948 38.1092C106.266 37.8967 106.649 37.7268 107.074 37.5994C107.52 37.4507 107.987 37.387 108.454 37.387ZM108.306 42.2087C108.582 42.2087 108.837 42.145 109.07 42.0175C109.283 41.8901 109.453 41.6777 109.538 41.4228V40.828H108.39C107.711 40.828 107.35 41.0617 107.35 41.5077C107.35 41.7201 107.435 41.8901 107.605 42.0175C107.796 42.145 108.029 42.2087 108.306 42.2087Z" fill="#072DA0"/>
<path d="M112.575 37.4719H114.232V39.7235H116.738V37.4719H118.416V43.2283H116.738V41.0829H114.232V43.2283H112.575V37.4719Z" fill="#072DA0"/>
<path d="M122.474 41.0617H121.603V43.2495H119.925V37.4932H121.603V39.7235H122.495L124.067 37.4932H125.851L123.833 40.2545L126 43.2495H124.024L122.474 41.0617Z" fill="#072DA0"/>
</svg>
