<svg width="24" height="24" viewBox="0 0 24 24" fill="none" xmlns="http://www.w3.org/2000/svg">
<path d="M24 12C24 18.6274 18.6274 24 12 24C5.37258 24 0 18.6274 0 12C0 5.37258 5.37258 0 12 0C18.6274 0 24 5.37258 24 12Z" fill="#333333" fill-opacity="0.6"/>
<path d="M10.08 15.6V23.76C10.08 23.8925 10.1875 24 10.32 24H13.68C13.8125 24 13.92 23.8925 13.92 23.76V15.6C13.92 15.4675 14.0275 15.36 14.16 15.36H16.56C16.6925 15.36 16.8 15.2525 16.8 15.12V12.24C16.8 12.1075 16.6925 12 16.56 12H14.16C14.0275 12 13.92 11.8927 13.92 11.7602V9.6C13.92 8.64 15.12 8.16 15.6 8.16H17.04C17.1725 8.16 17.28 8.05255 17.28 7.92V5.04C17.28 4.90745 17.1726 4.8 17.04 4.8H13.92C11.616 4.8 10.08 7.2 10.08 8.64V11.76C10.08 11.8925 9.97255 12 9.84 12H7.44C7.30745 12 7.2 12.1075 7.2 12.24V15.12C7.2 15.2525 7.30745 15.36 7.44 15.36H9.84C9.97255 15.36 10.08 15.4675 10.08 15.6Z" fill="white"/>
</svg>
