<svg width="205" height="30" viewBox="0 0 205 30" fill="none" xmlns="http://www.w3.org/2000/svg">
<g clip-path="url(#clip0_184_800)">
<path d="M9.90078 16H22.0008L18.5008 22H6.50078C6.10078 22 5.60078 21.8 5.40078 21.4L0.300781 12.5C-0.199219 11.6 -0.199219 10.4 0.300781 9.5L4.90078 1.5C5.60078 0.6 6.50078 0 7.60078 0H16.8008C17.9008 0 18.9008 0.6 19.4008 1.5L22.1008 6H14.6008C14.5008 6 14.5008 6 14.4008 6C14.3008 6 14.1008 6.1 14.0008 6.2L13.9008 6.3C13.8008 6.4 13.8008 6.4 13.7008 6.5L9.10078 14.5C8.90078 14.8 8.90078 15.2 9.10078 15.5C9.20078 15.7 9.50078 15.9 9.70078 16C9.80078 16 9.80078 16 9.90078 16Z" fill="#F5481F"/>
<path d="M11.7016 14L15.2016 8L11.7016 14ZM15.1016 8H19.1016H15.1016ZM19.2016 24H11.7016H19.2016C19.3016 24 19.4016 24 19.5016 24C19.3016 24 19.3016 24 19.2016 24ZM9.90156 16C9.80156 16 9.70156 16 9.60156 16C9.80156 16 9.80156 16 9.90156 16H22.0016H9.90156ZM9.90156 16C9.80156 16 9.70156 16 9.60156 16C9.80156 16 9.80156 16 9.90156 16H22.0016H9.90156Z" fill="white"/>
<path d="M33.2992 20.5L28.6992 28.5C28.1992 29.4 27.1992 30 26.0992 30H16.8992C15.7992 30 14.7992 29.4 14.2992 28.5L11.6992 24H19.1992C19.2992 24 19.3992 24 19.4992 24C19.7992 23.9 19.9992 23.8 20.0992 23.5L24.6992 15.5C24.8992 15.2 24.8992 14.8 24.6992 14.5C24.6992 14.4 24.5992 14.4 24.4992 14.3C24.2992 14.1 24.0992 14 23.7992 14H11.6992L15.1992 8H19.1992H26.0992C27.1992 8 28.1992 8.6 28.6992 9.5L33.2992 17.5C33.8992 18.4 33.8992 19.6 33.2992 20.5Z" fill="#F5481F"/>
<path d="M9.90039 22H18.6004H9.90039ZM14.5004 6C14.4004 6 14.4004 6 14.3004 6C14.4004 6 14.5004 6 14.5004 6H22.0004H14.5004ZM22.0004 16L18.6004 22L22.0004 16ZM23.8004 14H11.7004H23.8004C24.1004 14 24.3004 14.1 24.5004 14.3C24.3004 14.1 24.1004 14 23.8004 14ZM23.8004 14H11.7004H23.8004C24.1004 14 24.3004 14.1 24.5004 14.3C24.3004 14.1 24.1004 14 23.8004 14Z" fill="white"/>
<path d="M53.4992 8.10039C54.5992 9.20039 55.1992 10.8004 55.1992 12.4004C55.1992 13.5004 54.9992 14.6004 54.4992 15.5004C53.9992 16.4004 53.2992 17.1004 52.2992 17.6004C51.2992 18.1004 50.0992 18.4004 48.9992 18.4004H45.2992V24.4004H41.6992V6.40039H48.9992C50.6992 6.40039 52.2992 7.00039 53.4992 8.10039ZM50.5992 14.4004C51.0992 13.8004 51.3992 13.1004 51.3992 12.3004C51.3992 11.6004 51.0992 10.9004 50.5992 10.4004C49.9992 9.80039 49.1992 9.50039 48.2992 9.60039H45.1992V15.2004H48.2992C49.0992 15.3004 49.9992 15.0004 50.5992 14.4004Z" fill="#27087B"/>
<path d="M70.0984 11.9004V24.5004H66.7984V22.9004C66.2984 23.5004 65.6984 24.0004 64.9984 24.3004C64.1984 24.7004 63.2984 24.8004 62.3984 24.8004C61.2984 24.8004 60.1984 24.5004 59.2984 24.0004C58.3984 23.5004 57.6984 22.7004 57.1984 21.7004C56.6984 20.6004 56.3984 19.4004 56.3984 18.2004C56.3984 17.0004 56.5984 15.8004 57.1984 14.7004C57.6984 13.7004 58.4984 12.9004 59.3984 12.3004C60.3984 11.7004 61.4984 11.4004 62.5984 11.5004C63.4984 11.5004 64.2984 11.6004 65.0984 12.0004C65.7984 12.3004 66.3984 12.8004 66.8984 13.4004L67.1984 12.0004L70.0984 11.9004ZM65.5984 20.7004C66.1984 20.0004 66.5984 19.1004 66.4984 18.1004C66.4984 17.2004 66.1984 16.2004 65.5984 15.5004C64.9984 14.8004 64.0984 14.5004 63.1984 14.5004C62.2984 14.5004 61.3984 14.8004 60.7984 15.5004C60.1984 16.2004 59.8984 17.1004 59.8984 18.0004C59.8984 18.9004 60.1984 19.9004 60.7984 20.6004C61.3984 21.3004 62.2984 21.6004 63.1984 21.6004C64.0984 21.7004 64.9984 21.3004 65.5984 20.7004Z" fill="#27087B"/>
<path d="M80.8992 11.9002V14.9002C80.6992 14.9002 80.4992 14.9002 80.1992 14.9002C79.2992 14.8002 78.2992 15.2002 77.5992 15.8002C76.9992 16.5002 76.5992 17.4002 76.6992 18.4002V24.5002H73.1992V11.9002H76.3992L76.6992 13.7002C76.8992 13.1002 77.2992 12.6002 77.7992 12.3002C78.3992 12.0002 79.0992 11.8002 79.6992 11.8002C80.1992 11.7002 80.4992 11.8002 80.8992 11.9002Z" fill="#27087B"/>
<path d="M90.4992 14.7002H88.0992V24.4002H84.5992V14.7002H82.1992V11.8002H84.5992V8.60022H88.0992V11.9002H90.4992V14.7002Z" fill="#27087B"/>
<path d="M103.1 12.9004C104 14.0004 104.4 15.3004 104.4 16.7004V24.5004H100.9V17.5004C100.9 15.6004 100.1 14.6004 98.6 14.6004C97.9 14.6004 97.2 14.8004 96.7 15.3004C96.2 15.9004 96 16.6004 96 17.3004V24.4004H92.5V11.9004H95.4L95.6 13.4004C96 12.8004 96.6 12.3004 97.3 12.0004C98 11.7004 98.8 11.5004 99.6 11.5004C100.9 11.4004 102.2 11.9004 103.1 12.9004Z" fill="#27087B"/>
<path d="M117.399 23.6C116.199 24.4 114.799 24.8 113.299 24.8C112.099 24.8 110.899 24.5 109.799 24C108.799 23.5 107.999 22.6 107.499 21.6C106.899 20.5 106.699 19.3 106.699 18.1C106.699 16.9 106.999 15.7 107.499 14.6C107.999 13.6 108.799 12.8 109.799 12.3C110.799 11.7 111.999 11.5 113.199 11.5C114.299 11.5 115.499 11.7 116.499 12.3C117.399 12.8 118.199 13.5 118.699 14.4C119.199 15.3 119.499 16.4 119.499 17.5C119.499 18 119.399 18.6 119.299 19.1H110.099C110.099 19.9 110.399 20.6 110.999 21.2C111.599 21.7 112.399 22 113.199 22C113.799 22 114.399 21.9 114.999 21.6C115.499 21.4 115.799 21 116.099 20.5H119.499C119.299 21.7 118.499 22.9 117.399 23.6ZM115.999 16.8C115.999 16.1 115.699 15.4 115.199 15C114.599 14.5 113.899 14.3 113.199 14.3C112.499 14.3 111.699 14.5 111.099 15C110.599 15.4 110.199 16.1 110.199 16.8H115.999Z" fill="#27087B"/>
<path d="M129.6 11.9002V14.9002C129.4 14.9002 129.2 14.9002 128.9 14.9002C128 14.8002 127 15.2002 126.3 15.8002C125.7 16.5002 125.3 17.4002 125.4 18.4002V24.5002H122V11.9002H125.2L125.5 13.7002C125.7 13.1002 126.1 12.6002 126.6 12.3002C127.2 12.0002 127.9 11.8002 128.5 11.8002C128.8 11.7002 129.2 11.8002 129.6 11.9002Z" fill="#27087B"/>
<path d="M132.498 23.7C131.498 23 130.898 21.9 130.898 20.7H134.298C134.298 21.1 134.498 21.6 134.898 21.8C135.298 22.1 135.798 22.2 136.298 22.2C136.798 22.2 137.198 22.1 137.598 21.9C137.898 21.7 138.098 21.4 138.098 21C138.098 20.7 137.998 20.4 137.698 20.2C137.398 20 137.098 19.9 136.698 19.8L134.598 19.3C133.598 19.1 132.698 18.6 131.998 17.9C131.398 17.3 131.098 16.4 131.098 15.6C131.098 14.4 131.598 13.3 132.498 12.6C133.598 11.8 134.898 11.4 136.198 11.5C137.498 11.4 138.798 11.8 139.898 12.6C140.798 13.3 141.398 14.4 141.398 15.5H137.998C137.998 15.1 137.798 14.7 137.498 14.4C137.098 14.1 136.698 14 136.198 14C135.798 14 135.398 14.1 135.098 14.3C134.798 14.5 134.698 14.8 134.698 15.2C134.698 15.5 134.798 15.8 134.998 16C135.298 16.2 135.698 16.3 135.998 16.4L138.398 17C139.298 17.2 140.198 17.6 140.798 18.4C141.298 19.1 141.598 19.9 141.598 20.7C141.598 21.9 141.098 23 140.098 23.7C138.998 24.5 137.598 24.9 136.198 24.8C134.998 24.8 133.598 24.5 132.498 23.7Z" fill="#27087B"/>
<path d="M157.5 17.0004C158.1 17.8004 158.4 18.7004 158.3 19.7004C158.4 21.1004 157.7 22.4004 156.6 23.2004C155.2 24.1004 153.6 24.5004 152 24.4004H144.5V6.50041H152C153.6 6.40041 155.2 6.90041 156.4 7.80041C157.5 8.70041 158.1 10.0004 158 11.4004C158 12.3004 157.8 13.2004 157.2 14.0004C156.7 14.7004 155.9 15.2004 155.1 15.5004C156.1 15.8004 156.9 16.3004 157.5 17.0004ZM148.2 9.60041V14.2004H151.9C152.6 14.2004 153.3 14.0004 153.8 13.5004C154.2 13.1004 154.5 12.5004 154.5 11.9004C154.5 11.3004 154.3 10.7004 153.8 10.3004C153.3 9.80041 152.6 9.60041 151.9 9.60041H148.2ZM154 20.7004C154.5 20.3004 154.7 19.7004 154.7 19.1004C154.7 18.5004 154.4 17.8004 154 17.4004C153.5 17.0004 152.8 16.7004 152.1 16.8004H148.1V21.3004H152.1C152.8 21.4004 153.5 21.2004 154 20.7004Z" fill="#27087B"/>
<path d="M174.001 11.9004V24.5004H170.701V22.9004C170.201 23.5004 169.601 24.0004 168.901 24.3004C168.101 24.7004 167.201 24.8004 166.301 24.8004C165.201 24.8004 164.101 24.5004 163.201 24.0004C162.301 23.5004 161.601 22.7004 161.101 21.7004C160.601 20.6004 160.301 19.4004 160.301 18.2004C160.301 17.0004 160.501 15.8004 161.101 14.7004C161.601 13.7004 162.401 12.9004 163.301 12.3004C164.301 11.7004 165.401 11.4004 166.501 11.5004C167.401 11.5004 168.201 11.6004 169.001 12.0004C169.701 12.3004 170.301 12.8004 170.801 13.4004L171.101 12.0004L174.001 11.9004ZM169.601 20.7004C170.201 20.0004 170.601 19.1004 170.501 18.1004C170.501 17.2004 170.201 16.2004 169.601 15.5004C169.001 14.8004 168.101 14.5004 167.201 14.5004C166.301 14.5004 165.401 14.8004 164.801 15.5004C164.201 16.2004 163.901 17.1004 163.901 18.0004C163.901 18.9004 164.201 19.9004 164.801 20.6004C165.401 21.3004 166.301 21.6004 167.201 21.6004C168.101 21.7004 169.001 21.3004 169.601 20.7004Z" fill="#27087B"/>
<path d="M187.799 12.9004C188.699 14.0004 189.099 15.3004 189.099 16.7004V24.5004H185.599V17.5004C185.599 15.6004 184.799 14.6004 183.299 14.6004C182.599 14.6004 181.899 14.8004 181.399 15.3004C180.899 15.9004 180.699 16.6004 180.699 17.3004V24.4004H177.199V11.9004H180.099L180.299 13.4004C180.699 12.8004 181.299 12.3004 181.999 12.0004C182.699 11.7004 183.499 11.5004 184.299 11.5004C185.599 11.4004 186.899 11.9004 187.799 12.9004Z" fill="#27087B"/>
<path d="M200.098 16.5002L204.398 24.4002H200.398L197.598 19.1002L195.598 21.1002V24.4002H192.098V5.2002H195.598V16.8002L200.198 11.8002H204.498L200.098 16.5002Z" fill="#27087B"/>
</g>
<defs>
<clipPath id="clip0_184_800">
<rect width="204.6" height="30" fill="white"/>
</clipPath>
</defs>
</svg>
