<svg width="233" height="98" viewBox="0 0 233 98" fill="none" xmlns="http://www.w3.org/2000/svg">
<path fill-rule="evenodd" clip-rule="evenodd" d="M14.6219 37.459C0.308342 49.4357 -7.15108 66.9506 10.1509 79.8925C25.0825 91.0649 50.8365 94.5419 71.7731 96.3372C92.7916 98.1416 113.932 97.5925 134.741 95.7758C169.933 92.7076 234.958 83.5737 232.456 52.4058C231.021 34.5427 208.492 16.9714 185.751 8.51746C158.349 -1.66889 126.065 -0.262252 97.203 4.38611C67.9011 9.10338 40.0793 18.2725 21.939 34.5189C7.26024 47.6656 -4.14489 69.0872 14.651 83.5308C31.2566 96.2923 62.3581 97.0398 85.0217 95.4767C112.479 93.5816 139.845 90.6801 165.904 84.7979C189.811 79.3992 215.081 70.7479 226.725 55.1375C234.997 44.0437 233.941 31.8735 218.692 23.4722C203.067 14.8611 180.388 12.2966 161.11 10.7075C139.916 8.96093 119.219 9.126 98.2704 11.033C93.2655 11.4902 88.256 11.9425 83.2473 12.373C81.0128 12.5665 81.885 14.8438 84.0983 14.6512C98.0474 13.4485 111.852 11.8053 125.985 11.7293C135.911 11.6781 145.863 12.0084 155.774 12.6494C176.353 13.9829 199.956 16.5453 216.852 25.4192C237.152 36.0847 227.359 53.9613 212.81 64.1791C192.95 78.131 161.825 84.1218 134.218 88.1446C108.028 91.961 78.8137 95.5267 51.7868 92.8353C38.6913 91.5307 25.2334 88.157 16.2944 81.2867C5.96845 73.3522 7.36831 62.3366 11.531 53.2244C21.7437 30.8905 51.1276 16.6923 83.131 9.51196C113.922 2.60757 149.819 -0.482856 180.695 9.35825C196.081 14.2598 208.35 22.4713 217.446 31.9685C224.685 39.5315 230.125 48.2222 228.797 57.19C226.527 72.516 202.377 80.9926 183.191 85.7948C160.776 91.4017 136.196 93.9433 112.182 94.8851C89.7751 95.7628 66.6141 94.6123 44.8297 90.3127C32.6773 87.9114 20.4711 84.1569 11.8556 77.7129C2.20501 70.4917 1.81355 60.6385 6.16554 52.0962C11.9832 40.681 25.9751 31.4533 40.0949 24.4193C54.0713 17.4551 71.4637 11.7259 89.3718 11.1467C91.6044 11.0749 91.7069 8.74728 89.4531 8.81993C60.0666 9.76913 32.1986 22.7501 14.6219 37.459Z" fill="#F5481F"/>
</svg>
