<svg width="32" height="32" viewBox="0 0 32 32" fill="none" xmlns="http://www.w3.org/2000/svg">
<path d="M10.3338 11.3332C10.3338 11.8855 10.7815 12.3332 11.3338 12.3332C11.8861 12.3332 12.3338 11.8855 12.3338 11.3332H10.3338ZM11.3338 11.0225H12.3338L12.3338 11.0169L11.3338 11.0225ZM12.5856 7.95227L13.2966 8.65545V8.65545L12.5856 7.95227ZM15.6418 6.6665V5.66649L15.6363 5.66652L15.6418 6.6665ZM21.0258 6.6665L21.0313 5.6665H21.0258V6.6665ZM24.082 7.95227L23.371 8.65545V8.65545L24.082 7.95227ZM25.3338 11.0225L24.3338 11.0169V11.0225H25.3338ZM25.3338 16.3105H24.3338L24.3338 16.3161L25.3338 16.3105ZM24.082 19.3807L23.371 18.6776L24.082 19.3807ZM21.0258 20.6665V21.6665L21.0313 21.6665L21.0258 20.6665ZM20.6671 19.6665C20.1148 19.6665 19.6671 20.1142 19.6671 20.6665C19.6671 21.2188 20.1148 21.6665 20.6671 21.6665V19.6665ZM11.3337 12.333C11.886 12.333 12.3337 11.8853 12.3337 11.333C12.3337 10.7807 11.886 10.333 11.3337 10.333V12.333ZM10.9751 11.333V10.333L10.9695 10.333L10.9751 11.333ZM7.91888 12.6188L8.6299 13.322L7.91888 12.6188ZM6.66706 15.689H7.66707L7.66704 15.6835L6.66706 15.689ZM6.66706 20.9783L7.66706 20.9836V20.9783H6.66706ZM10.9751 25.333L10.9695 26.333H10.9751V25.333ZM16.3591 25.333V26.333L16.3646 26.333L16.3591 25.333ZM19.4152 24.0472L18.7042 23.3441L19.4152 24.0472ZM20.6671 20.977H19.667L19.6671 20.9826L20.6671 20.977ZM21.6671 20.6663C21.6671 20.1141 21.2193 19.6663 20.6671 19.6663C20.1148 19.6663 19.6671 20.1141 19.6671 20.6663H21.6671ZM11.3337 10.333C10.7815 10.333 10.3337 10.7807 10.3337 11.333C10.3337 11.8853 10.7815 12.333 11.3337 12.333V10.333ZM16.3591 11.333L16.3646 10.333H16.3591V11.333ZM19.4153 12.6188L20.1263 11.9156L19.4153 12.6188ZM20.6671 15.689L19.6671 15.6835V15.689H20.6671ZM19.6671 20.6663C19.6671 21.2186 20.1148 21.6663 20.6671 21.6663C21.2194 21.6663 21.6671 21.2186 21.6671 20.6663H19.6671ZM12.3338 11.3332V11.0225H10.3338V11.3332H12.3338ZM12.3338 11.0169C12.3289 10.1332 12.6752 9.28378 13.2966 8.65545L11.8746 7.24909C10.8802 8.25458 10.326 9.61392 10.3338 11.0281L12.3338 11.0169ZM13.2966 8.65545C13.918 8.02711 14.7636 7.67137 15.6473 7.66649L15.6363 5.66652C14.2221 5.67433 12.869 6.2436 11.8746 7.24909L13.2966 8.65545ZM15.6418 7.6665H21.0258V5.6665H15.6418V7.6665ZM21.0203 7.66649C21.904 7.67137 22.7495 8.02711 23.371 8.65545L24.793 7.24909C23.7986 6.2436 22.4455 5.67433 21.0313 5.66652L21.0203 7.66649ZM23.371 8.65545C23.9924 9.28378 24.3387 10.1332 24.3338 11.0169L26.3338 11.0281C26.3416 9.61392 25.7874 8.25458 24.793 7.24909L23.371 8.65545ZM24.3338 11.0225V16.3105H26.3338V11.0225H24.3338ZM24.3338 16.3161C24.3387 17.1998 23.9924 18.0492 23.371 18.6776L24.793 20.0839C25.7874 19.0784 26.3416 17.7191 26.3338 16.3049L24.3338 16.3161ZM23.371 18.6776C22.7495 19.3059 21.904 19.6616 21.0203 19.6665L21.0313 21.6665C22.4455 21.6587 23.7986 21.0894 24.793 20.0839L23.371 18.6776ZM21.0258 19.6665H20.6671V21.6665H21.0258V19.6665ZM11.3337 10.333H10.9751V12.333H11.3337V10.333ZM10.9695 10.333C9.55539 10.3408 8.20228 10.9101 7.20787 11.9156L8.6299 13.322C9.25131 12.6936 10.0969 12.3379 10.9806 12.333L10.9695 10.333ZM7.20787 11.9156C6.21346 12.9211 5.65922 14.2804 5.66707 15.6946L7.66704 15.6835C7.66213 14.7997 8.00848 13.9503 8.6299 13.322L7.20787 11.9156ZM5.66706 15.689V20.9783H7.66706V15.689H5.66706ZM5.66707 20.9731C5.65162 23.9173 8.02538 26.3167 10.9695 26.333L10.9806 24.333C9.14076 24.3229 7.65739 22.8234 7.66705 20.9836L5.66707 20.9731ZM10.9751 26.333H16.3591V24.333H10.9751V26.333ZM16.3646 26.333C17.7787 26.3252 19.1318 25.7559 20.1262 24.7504L18.7042 23.3441C18.0828 23.9724 17.2372 24.3281 16.3535 24.333L16.3646 26.333ZM20.1262 24.7504C21.1207 23.7449 21.6749 22.3856 21.667 20.9715L19.6671 20.9826C19.672 21.8663 19.3256 22.7157 18.7042 23.3441L20.1262 24.7504ZM21.6671 20.977V20.6663H19.6671V20.977H21.6671ZM11.3337 12.333H16.3591V10.333H11.3337V12.333ZM16.3535 12.333C17.2373 12.3379 18.0828 12.6936 18.7042 13.322L20.1263 11.9156C19.1319 10.9101 17.7787 10.3408 16.3646 10.333L16.3535 12.333ZM18.7042 13.322C19.3256 13.9503 19.672 14.7997 19.6671 15.6835L21.6671 15.6946C21.6749 14.2804 21.1207 12.9211 20.1263 11.9156L18.7042 13.322ZM19.6671 15.689V20.6663H21.6671V15.689H19.6671Z" fill="#27087B"/>
</svg>
