<svg width="24" height="24" viewBox="0 0 24 24" fill="none" xmlns="http://www.w3.org/2000/svg">
<path d="M0 11.52C0 6.0894 0 3.37413 1.68707 1.68707C3.37413 0 6.0894 0 11.52 0H12.48C17.9106 0 20.6259 0 22.313 1.68707C24 3.37413 24 6.0894 24 11.52V12.48C24 17.9106 24 20.6259 22.313 22.313C20.6259 24 17.9106 24 12.48 24H11.52C6.0894 24 3.37413 24 1.68707 22.313C0 20.6259 0 17.9106 0 12.48V11.52Z" fill="#333333" fill-opacity="0.6"/>
<path d="M12.7286 17.28C7.15272 17.28 3.97236 13.4962 3.83984 7.19995H6.6329C6.72464 11.8212 8.7837 13.7787 10.4147 14.1823V7.19995H13.0447V11.1855C14.6553 11.014 16.3473 9.19779 16.9181 7.19995H19.5481C19.1098 9.66193 17.2749 11.4781 15.9702 12.2248C17.2749 12.8302 19.3647 14.4144 20.1598 17.28H17.2648C16.6429 15.3628 15.0937 13.8796 13.0447 13.6778V17.28H12.7286Z" fill="white"/>
</svg>
