<svg width="24" height="24" viewBox="0 0 24 24" fill="none" xmlns="http://www.w3.org/2000/svg">
<path d="M0 11.52C0 6.0894 0 3.37413 1.68706 1.68706C3.37413 0 6.0894 0 11.52 0H12.48C17.9106 0 20.6258 0 22.3129 1.68706C24 3.37413 24 6.0894 24 11.52V12.48C24 17.9106 24 20.6258 22.3129 22.3129C20.6258 24 17.9106 24 12.48 24H11.52C6.0894 24 3.37413 24 1.68706 22.3129C0 20.6258 0 17.9106 0 12.48V11.52Z" fill="#333333" fill-opacity="0.6"/>
<path d="M16.7792 7.23466C15.5341 5.96777 13.8129 5.28 12.055 5.28C8.31964 5.28 5.31665 8.28439 5.35324 11.9403C5.35324 13.0987 5.68283 14.2208 6.23219 15.2343L5.28 18.6731L8.83231 17.7681C9.82109 18.3111 10.9197 18.5645 12.0184 18.5645C15.7172 18.5645 18.7202 15.5601 18.7202 11.9042C18.7202 10.1305 18.0243 8.46538 16.7792 7.23466ZM12.055 17.4424C11.0662 17.4424 10.0774 17.1891 9.23514 16.6823L9.01543 16.5737L6.89138 17.1166L7.44069 15.0534L7.29421 14.8362C5.68283 12.2662 6.45191 8.86355 9.08867 7.27083C11.7254 5.67817 15.1313 6.43833 16.7426 9.04455C18.354 11.6508 17.5849 15.0172 14.9482 16.6099C14.1058 17.1528 13.0805 17.4424 12.055 17.4424ZM15.2777 13.4245L14.8749 13.2435C14.8749 13.2435 14.289 12.9901 13.9228 12.8091C13.8861 12.8091 13.8495 12.7729 13.8129 12.7729C13.703 12.7729 13.6298 12.8092 13.5565 12.8454C13.5565 12.8454 13.5199 12.8815 13.0072 13.4607C12.9706 13.5331 12.8973 13.5693 12.8241 13.5693H12.7874C12.7509 13.5693 12.6776 13.5331 12.641 13.4969L12.4579 13.4245C12.055 13.2435 11.6888 13.0263 11.3958 12.7368C11.3226 12.6644 11.2127 12.592 11.1395 12.5196C10.8831 12.2662 10.6268 11.9766 10.4437 11.6508L10.407 11.5784C10.3705 11.5422 10.3705 11.506 10.3338 11.4337C10.3338 11.3613 10.3338 11.2889 10.3705 11.2527C10.3705 11.2527 10.5169 11.0717 10.6268 10.9631C10.7 10.8907 10.7366 10.7821 10.8099 10.7097C10.8831 10.6011 10.9198 10.4563 10.8831 10.3477C10.8465 10.1667 10.407 9.18938 10.2972 8.97221C10.2239 8.8636 10.1507 8.82743 10.0409 8.79121H9.63803C9.56474 8.79121 9.49155 8.82743 9.41826 8.82743L9.38161 8.8636C9.30838 8.89982 9.23514 8.97221 9.1619 9.00838C9.08867 9.08082 9.05202 9.15316 8.97878 9.2256C8.72243 9.55138 8.57595 9.94954 8.57595 10.3477C8.57595 10.6373 8.64919 10.9269 8.75907 11.1803L8.79571 11.2889C9.12531 11.9766 9.56473 12.592 10.1507 13.1349L10.2972 13.2797C10.407 13.3883 10.5169 13.4607 10.5902 13.5693C11.3592 14.2209 12.2381 14.6914 13.2269 14.9448C13.3368 14.981 13.4833 14.981 13.5932 15.0172H13.9594C14.1425 15.0172 14.3622 14.9448 14.5087 14.8724C14.6185 14.8 14.6918 14.8 14.765 14.7276L14.8383 14.6552C14.9115 14.5828 14.9848 14.5466 15.058 14.4743C15.1313 14.4019 15.2045 14.3295 15.2411 14.257C15.3144 14.1123 15.351 13.9313 15.3876 13.7503V13.4969C15.3876 13.4969 15.351 13.4607 15.2777 13.4245Z" fill="white"/>
</svg>
